<svg xmlns="http://www.w3.org/2000/svg" width="8" height="11" viewBox="0 0 8 11">
    <path fill="#FF626A" fill-rule="evenodd" d="M5.902 4.183V2.636c0-.93-.746-1.683-1.666-1.683h-.472c-.919 0-1.665.753-1.665 1.683v1.547h3.803zm-1.47 4.673V7.91c.05-.031.098-.07.141-.114.317-.32.317-.84 0-1.159-.316-.32-.83-.32-1.146 0-.317.32-.317.84 0 1.16.043.044.09.082.14.113v.946c0 .22.178.398.396.398h.075c.218 0 .394-.178.394-.398zM0 9.856v-4.53c0-.63.507-1.143 1.132-1.143h.024V2.518C1.156 1.128 2.272 0 3.647 0h.706c1.376 0 2.492 1.128 2.492 2.518v1.665h.024C7.493 4.183 8 4.695 8 5.327v4.53C8 10.487 7.493 11 6.87 11H1.131C.507 11 0 10.488 0 9.857z"/>
</svg>
