<svg xmlns="http://www.w3.org/2000/svg" width="59" height="59" viewBox="0 0 59 59">
    <g fill="none" transform="translate(0 -.103)">
        <ellipse cx="29.526" cy="29.571" fill="#FFF" rx="29.425" ry="29.453"/>
        <g fill="#E5003D">
            <path d="M56.542 17.819c-.169.024-.313.072-.482.12-.168.073-.288.12-.433.217-.12.097-.289.193-.41.314-.24.217-.432.482-.625.747-.192.29-.313.603-.433.94-.12.338-.217.724-.337 1.11-.096.385-.193.82-.24 1.254-.073.24-.482 2.772-.82 4.798l-.48 2.652s0 .072-.025.169c0 .072-.024.096-.024.169-.024.217-.072.41-.096.602 0 .097-.024.17-.024.217v.242c0 .192 0 .41.024.578.024.217.12.434.217.627.072.097.168.193.216.241.096.073.193.12.289.193.096.073.217.097.337.12h.072l-.939 2.99h-.288c-.337 0-.65-.072-.987-.12-.29-.072-.578-.169-.819-.29-.024-.023-.096-.072-.12-.096-.193-.096-.337-.193-.506-.29-.216-.168-.433-.337-.601-.578-.241-.337-.434-.723-.578-1.133-.168.241-.337.53-.53.796-.096.096-.192.217-.288.313v.024l-.073.073c-.072.024-.096.096-.168.12-.072.024-.096.097-.169.12-.168.121-.312.242-.481.338-.289.193-.578.314-.89.434-.29.097-.602.193-.915.217-.313.024-.65.073-1.035.024-.337 0-.65-.072-.987-.12-.313-.073-.602-.169-.89-.29-.29-.12-.506-.289-.723-.434-.217-.168-.41-.337-.578-.578-.288-.386-.433-.82-.577-1.302-.097-.482-.12-.989-.12-1.52.023-.53.096-1.06.168-1.639.096-.53.192-1.11.313-1.64.096-.53.216-1.06.385-1.615.12-.53.289-1.06.505-1.616.193-.506.434-1.012.722-1.446.29-.434.626-.844 1.036-1.158.216-.192.48-.337.746-.506.289-.12.577-.241.89-.338.313-.096.626-.168.94-.192.312-.025.649-.073.986-.025.337.025.65.073.939.121.289.072.577.169.818.29.24.12.482.289.698.482.193.168.337.385.506.602.024-.192.072-.41.096-.602.096-.507.217-1.037.337-1.616.12-.579.24-1.109.41-1.615.168-.507.312-.989.48-1.423.073-.169.12-.29.193-.434.024-.024.024-.096.096-.193 0 0 0-.024.024-.024.025-.072.073-.096.097-.169.072-.12.168-.24.216-.386.169-.217.313-.434.506-.626.602-.627 1.444-1.327 2.672-1.544C49.754 5.86 40.27 0 29.462 0 13.191-.024 0 13.165 0 29.44c0 4.727 1.107 9.211 3.081 13.166.602-.241 1.107-.7 1.444-1.302l.024-.024.024-.025c.169-.289.313-.578.434-.892.12-.313.216-.65.313-1.037 0-.072 2.238-12.224 2.383-12.948h-1.95l.987-3.255h1.54l.169-.844c.024-.12.024-.217.072-.337l.072-.29c.096-.506.193-1.109.289-1.519.096-.337.169-.626.24-.892.121-.41.241-.747.41-1.06.217-.507.505-.941.794-1.35.313-.435.65-.82 1.06-1.158.288-.241.625-.507.986-.724.385-.217.746-.434 1.156-.602.433-.193.914-.314 1.396-.41.505-.097 1.035-.17 1.564-.17h.073c.53 0 1.035.073 1.468.17.192.024.337.096.505.12l-1.059 3.424-.024-.024c-.024 0-.024-.024-.072-.024-.169-.072-.337-.12-.53-.193-.192-.024-.409-.072-.625-.072H16.2c-.241 0-.482.024-.699.072-.192.024-.385.096-.601.193h-.048c-.169.072-.29.12-.434.217-.12.096-.289.193-.409.29-.217.192-.433.41-.602.698-.168.242-.313.531-.409.893-.096.289-.217.627-.289 1.036 0 .073-.072.338-.096.603-.024.217-.072.41-.096.434l-.241 1.52h2.335l-.987 3.254h-1.926l-1.757 9.814-.433 2.387c-.096.579-.193 1.037-.337 1.52-.169.626-.337 1.156-.578 1.639-.216.506-.505.988-.818 1.398-.313.434-.698.82-1.107 1.206-.313.29-.626.506-.987.723-.29.193-.602.338-.94.506 5.248 8.078 14.323 13.407 24.65 13.407 16.247.024 29.462-13.165 29.462-29.44.12-4.124-.77-8.103-2.311-11.72zm-17.21 11.356c-.29 1.52-.699 3.063-1.662 4.292-1.733 2.17-5.006 3.255-7.654 2.243-1.3-.483-2.263-1.543-2.576-2.894-.312-1.35-.072-2.845.193-4.195.24-1.35.626-2.749 1.42-3.906.746-1.134 1.926-2.026 3.178-2.532 2.479-.94 6.065-.506 7.148 2.29-.12-.385.12.386 0 0 .53 1.52.193 3.232-.048 4.702zm-13.047 0c-.289 1.52-.698 3.063-1.66 4.292-1.734 2.17-5.007 3.28-7.655 2.243-1.3-.483-2.263-1.543-2.576-2.894-.313-1.35-.072-2.845.193-4.195.24-1.35.626-2.749 1.42-3.906.746-1.134 1.926-2.026 3.177-2.532 2.48-.94 6.042-.506 7.101 2.266-.024-.096-.072-.168 0 0 .072.17.024.097 0 .025.554 1.567.24 3.23 0 4.701z" transform="translate(.089 .089)"/>
            <path d="M48.84 25.028c-.097-.12-.193-.217-.29-.313-.096-.097-.216-.17-.337-.217-.12-.073-.288-.097-.409-.12-.168-.025-.313-.025-.505-.025-.193 0-.337 0-.506.024-.168.024-.313.072-.433.12-.169.073-.289.121-.41.218-.12.096-.24.193-.384.313-.217.217-.434.434-.602.724-.169.289-.313.578-.433.916-.12.313-.217.699-.313 1.06-.097.386-.193.796-.241 1.206-.096.41-.169.82-.217 1.206-.072.386-.096.747-.096 1.06 0 .338 0 .628.072.917.072.29.169.53.29.723.095.121.192.217.288.314.096.096.217.169.337.217.12.072.289.096.41.12.168.025.312.025.505.025.192 0 .337-.025.505-.073.169-.024.313-.096.482-.12.168-.073.288-.12.433-.217.12-.097.289-.193.385-.314.217-.217.41-.482.602-.723.168-.29.313-.603.409-.916.072-.193.12-.386.192-.58.073-.216.12-.433.193-.698.072-.338.169-.7.217-1.037.024-.193.072-.386.096-.53.024-.218.072-.41.096-.628.072-.385.097-.723.097-1.036 0-.314 0-.627-.073-.892-.144-.29-.24-.507-.36-.724zM35.865 25.052c-.313-.482-.89-.65-1.42-.699-1.204-.024-2.118.723-2.6 1.736-.53 1.037-.722 2.267-.914 3.4-.193 1.013-.434 2.363.168 3.28.626.843 1.926.843 2.768.385.987-.53 1.445-1.567 1.733-2.604.217-.627.313-1.326.434-1.977.096-.627.216-1.254.216-1.93 0-.506-.072-1.109-.385-1.59zM22.819 25.052c-.313-.482-.89-.65-1.42-.699-1.156-.024-2.07.7-2.6 1.664-.53 1.06-.746 2.29-.939 3.472-.192 1.013-.481 2.363.169 3.28.505.698 1.444.819 2.238.602.795-.217 1.397-.82 1.758-1.52.433-.795.65-1.711.818-2.555.168-.892.337-1.76.385-2.676-.048-.483-.096-1.086-.41-1.568z" transform="translate(.089 .089)"/>
        </g>
        <g fill="#FFF">
            <path d="M28.613 4.791L27.77 3.344 27.385 3.754 27.385 4.791 26.542 4.791 26.542.041 27.385.041 27.385 2.717 28.54 1.295 29.575 1.295 28.348 2.693 29.672 4.767 28.613 4.767 28.613 4.791zM24.52 2.283c-.12-.12-.24-.217-.48-.217-.242 0-.579.193-.579.627v2.074h-.89V1.295h.842v.337c.169-.193.506-.386.89-.386.338 0 .579.097.82.314l-.602.723zM20.766 4.43c-.217.216-.578.433-1.06.433-.505 0-.842-.193-1.059-.434-.313-.313-.385-.723-.385-1.35 0-.627.096-1.013.385-1.35.217-.217.578-.434 1.06-.434.505 0 .89.193 1.059.434.312.313.385.723.385 1.35 0 .603-.048.988-.385 1.35zm-.65-2.22c-.097-.096-.217-.168-.41-.168-.168 0-.313.072-.409.169-.192.193-.192.482-.192.844 0 .337.024.65.192.844.096.096.217.168.41.168.192 0 .312-.072.409-.168.192-.193.192-.483.192-.844 0-.362-.024-.651-.192-.844zM15.951 4.791L15.229 4.791 14.507 2.621 13.785 4.791 13.063 4.791 12.004 1.319 12.919 1.319 13.496 3.465 14.194 1.319 14.82 1.319 15.542 3.465 16.12 1.319 17.035 1.319zM10.174 4.79c-.698 0-1.01-.506-1.01-1.012V2.042h-.386v-.65h.385V.353h.891v1.037h.602v.651h-.602v1.664c0 .193.096.313.313.313h.313v.724h-.506v.048zM5.336 3.32c0 .434.29.796.746.796.386 0 .578-.097.795-.314l.53.507c-.338.337-.699.53-1.325.53-.818 0-1.612-.386-1.612-1.76 0-1.133.601-1.76 1.516-1.76.987 0 1.517.699 1.517 1.663v.386H5.336V3.32zm1.228-.94c-.096-.217-.289-.338-.578-.338s-.481.169-.578.338c-.072.12-.072.217-.096.385h1.324c.024-.168-.024-.265-.072-.385zM2.087 4.79V2.67c0-.482-.313-.627-.578-.627-.265 0-.578.169-.578.627v2.122h-.89V1.319h.842v.313c.217-.24.53-.337.843-.337.337 0 .626.12.818.313.289.29.337.603.337.989v2.218h-.794v-.024z" transform="translate(16.85 38.82)"/>
        </g>
    </g>
</svg>
