<svg xmlns="http://www.w3.org/2000/svg" xmlns:xlink="http://www.w3.org/1999/xlink" width="177" height="68" viewBox="0 0 177 68">
    <defs>
        <path id="prefix__a" d="M0 0L22.626 0 22.626 22.741 0 22.741z"/>
        <path id="prefix__c" d="M0 0L23.118 0 23.118 23.252 0 23.252z"/>
    </defs>
    <g fill="none" fill-rule="evenodd">
        <g>
            <path fill="#FFF" d="M52.421 26.701v-5.445h-5.736v-8.008h-2.23c-.278 4.926-3.138 9.138-7.33 11.211v2.402h3.027v6.73c0 6.464 2.49 9.606 7.648 9.606 1.023 0 2.846-.142 3.824-.32V36.31c-.476.089-1.856.32-2.549.32-1.82 0-2.39-.836-2.39-3.466v-6.463h5.736zM65.646 43.677c-7.095 0-12.269-4.764-12.269-11.851 0-6.864 4.492-12.011 11.631-12.011 4.745 0 9.975 2.158 10.995 8.488l-5.736 1.921c-.4-2.807-2.82-4.324-5.259-4.324-2.616 0-5.258 1.906-5.258 5.606 0 3.61 1.878 5.925 5.736 5.925 1.952 0 4.372-1.02 5.259-2.402l5.417 2.402c-1.951 4.146-6.082 6.246-10.516 6.246M93.051 20.135c4.854 0 7.967 3.36 7.967 8.574v14.167h-6.533V29.861c0-2.407-1.722-3.61-3.71-3.61-2.475 0-5.347 1.805-6.009 5.415v11.21h-6.373V13.248h6.373v10.57c2.137-2.495 5.302-3.683 8.285-3.683M110.1 28.943h10.676c-.621-2.14-2.18-3.363-5.418-3.363-2.306 0-4.371 1.358-5.258 3.363m11.313 6.406l4.461 2.723c-1.907 4.056-6.498 5.605-10.356 5.605-7.096 0-11.95-4.764-11.95-11.851 0-7.355 4.739-12.011 11.79-12.011 6.43 0 11.472 4.445 11.472 10.73 0 1.693-.478 3.043-.478 3.043h-16.411c.754 2.54 2.845 4.324 5.417 4.324 1.33 0 4.724.023 6.055-2.563" transform="translate(1 .094) translate(11.932)"/>
            <g transform="translate(1 .094) translate(11.932) translate(129.38 20.135)">
                <mask id="prefix__b" fill="#fff">
                    <use xlink:href="#prefix__a"/>
                </mask>
                <path fill="#FFF" d="M14.659 0c4.835 0 7.967 3.439 7.967 8.648v14.093h-6.533V9.45c0-2.363-1.561-3.523-3.506-3.523-2.473 0-5.507 1.905-6.214 5.605v11.21H0V.481h6.055l.318 3.202C8.503 1.146 11.687 0 14.66 0" mask="url(#prefix__b)"/>
            </g>
            <path fill="#FFF" d="M31.23 25.9c-1.101 0-2.165-.226-3.187-.48v17.456h6.373V25.42c-1.02.252-2.09.48-3.186.48M6.373 28.142l7.808-6.886h8.126l-7.648 7.527c2.304 4.702 6.088 8.488 8.126 8.488.62 0 2.28-.008 2.868-.008v5.613c-1.197.224-3.531.16-4.462.16-4.297 0-7.113-4.039-10.834-10.89L6.373 35.51v7.367H0V13.248h6.373v14.894z" transform="translate(1 .094) translate(11.932)"/>
            <path fill="#E6003D" d="M33.679 10.839c-.032-.045-.068-.083-.11-.118-.04-.033-.086-.062-.136-.083-.05-.024-.105-.041-.164-.052-.06-.012-.123-.017-.192-.018-.07.001-.134.006-.197.018-.061.011-.12.029-.176.05-.056.024-.11.053-.161.086-.052.034-.102.073-.15.118-.09.081-.166.176-.231.282-.065.106-.12.224-.167.353-.048.127-.088.267-.124.414-.035.147-.067.303-.098.467-.032.162-.061.32-.083.468-.021.148-.035.29-.038.42-.004.131.003.251.025.36.022.108.06.204.113.286.033.044.07.084.11.118.04.035.086.063.135.087.05.022.105.04.164.05.06.012.126.017.196.016.069-.002.136-.009.199-.02.064-.013.124-.033.182-.056.058-.025.114-.055.166-.09.053-.036.105-.077.153-.123.09-.083.164-.18.228-.287.065-.11.118-.23.165-.36.025-.07.048-.145.07-.22.018-.065.035-.13.05-.198.037-.147.069-.303.099-.464.015-.076.028-.15.04-.223.015-.082.027-.163.038-.241.02-.147.033-.284.036-.411.003-.127-.005-.245-.028-.35-.023-.105-.06-.198-.114-.28M28.557 10.839c-.032-.045-.069-.083-.109-.118-.04-.033-.087-.061-.137-.083-.05-.023-.104-.04-.164-.053-.059-.01-.123-.016-.192-.017-.069.001-.134.006-.197.018-.061.011-.12.028-.176.05-.056.024-.11.053-.16.086-.052.034-.102.074-.152.118-.089.081-.165.176-.23.282-.066.106-.121.223-.167.353-.048.127-.088.267-.124.414-.035.147-.068.303-.098.467-.032.162-.061.32-.083.468-.02.148-.035.29-.038.42-.004.131.003.251.025.36.023.108.06.204.114.286.032.044.069.084.11.118.039.035.085.063.134.087.05.022.105.04.165.05.06.012.124.017.195.016.069-.001.135-.009.2-.02.062-.013.123-.033.181-.056.058-.025.113-.055.166-.09.053-.036.105-.077.153-.123.089-.083.164-.179.228-.287.064-.11.118-.23.165-.36.026-.072.049-.147.07-.224.019-.063.036-.127.051-.194.035-.147.068-.303.098-.464.015-.076.028-.15.04-.221.015-.084.028-.164.038-.243.02-.147.034-.284.036-.411.003-.127-.005-.245-.029-.35-.021-.105-.059-.198-.113-.28M38.758 10.827c-.031-.045-.068-.084-.11-.119-.04-.033-.087-.062-.137-.084-.05-.024-.106-.041-.166-.053-.06-.011-.124-.016-.194-.017-.07 0-.136.006-.199.017-.062.012-.121.03-.178.052-.056.023-.11.052-.163.086-.052.034-.102.074-.151.12-.091.081-.167.177-.233.283-.066.108-.122.227-.17.357-.047.13-.087.27-.124.42-.036.147-.068.305-.1.47-.032.164-.06.323-.082.473-.022.15-.036.293-.04.425-.003.132.004.253.026.363.023.109.06.206.115.288.033.045.07.086.11.12.042.035.087.064.137.087.05.024.106.04.166.052.06.011.126.016.197.016.07-.002.138-.009.201-.022.064-.012.125-.032.184-.056.058-.024.115-.054.168-.09.053-.037.105-.078.154-.124.09-.084.166-.182.23-.29.065-.11.12-.233.167-.364.026-.071.049-.146.07-.223.027-.086.052-.174.074-.267.03-.131.057-.27.083-.412.012-.074.025-.145.035-.214.014-.083.027-.165.038-.243.02-.148.034-.287.036-.416.003-.128-.005-.247-.028-.352-.023-.107-.06-.201-.116-.283" transform="translate(1 .094) translate(11.932)"/>
            <g transform="translate(1 .094) translate(11.932) translate(19.598 .917)">
                <mask id="prefix__d" fill="#fff">
                    <use xlink:href="#prefix__c"/>
                </mask>
                <path fill="#E6003D" d="M15.55 10.738c-.016.204-.047.426-.089.672-.041.249-.087.474-.14.68-.055.207-.118.396-.193.57-.076.172-.165.33-.27.48-.107.148-.23.287-.376.42-.1.09-.213.179-.34.262-.126.082-.265.158-.418.223-.153.065-.318.118-.497.158-.179.038-.37.06-.575.063-.205.004-.39-.014-.555-.049-.167-.033-.316-.083-.446-.145-.131-.061-.246-.134-.344-.215-.098-.081-.18-.169-.25-.259-.101-.132-.177-.27-.233-.42-.055-.149-.087-.31-.103-.484-.014-.177-.011-.368.009-.577.018-.211.052-.44.098-.693.046-.251.098-.478.156-.685.06-.208.126-.395.205-.568.08-.173.173-.33.282-.476.11-.146.236-.282.384-.41.1-.089.214-.175.34-.253.127-.079.265-.15.415-.21.151-.06.315-.11.49-.143.176-.034.364-.052.564-.05.199.001.379.022.54.059.163.035.307.087.435.148.128.062.24.135.336.215.095.079.176.164.242.252.099.128.174.262.229.407.055.145.088.3.104.47.017.169.016.354 0 .558zm-5.122 0c-.016.204-.047.426-.09.673-.04.248-.086.474-.14.68-.054.206-.117.395-.193.567-.075.175-.164.334-.27.482-.106.148-.23.288-.375.42-.1.09-.213.179-.34.262-.126.082-.265.158-.418.223-.153.065-.318.118-.497.158-.178.037-.37.06-.575.063-.205.004-.39-.014-.556-.048-.166-.034-.315-.084-.445-.146-.131-.061-.245-.134-.343-.215-.098-.08-.181-.169-.25-.259-.101-.132-.178-.27-.233-.42-.055-.149-.088-.31-.103-.485-.014-.176-.011-.367.008-.576.02-.211.053-.44.099-.693.047-.251.097-.478.156-.685.059-.208.126-.395.205-.569.08-.172.173-.33.281-.475.11-.146.236-.282.384-.41.1-.088.214-.174.34-.253.126-.079.265-.15.416-.21.15-.06.314-.11.49-.143.175-.034.363-.052.563-.05.199.001.379.022.54.059.163.036.307.087.436.148.127.062.239.136.334.215.096.079.176.164.243.252.098.128.174.262.229.407.054.145.088.3.105.47.016.169.015.354-.001.558zm11.75-3.673c-.065.011-.127.03-.185.053-.059.025-.115.055-.17.09-.053.036-.106.078-.157.125-.094.084-.173.184-.242.295-.068.113-.126.236-.175.371-.05.135-.091.281-.13.436-.036.154-.07.318-.102.49-.02.104-.186 1.088-.32 1.887l-.181 1.036-.01.065-.011.058c-.014.083-.024.163-.031.24-.004.035-.008.066-.009.088l-.005.092.003.013c0 .081.002.158.015.229.017.092.046.174.09.245.027.038.057.073.091.103.033.03.071.055.113.076.042.02.088.036.138.047l.026.003-.365 1.176c-.038 0-.075.002-.114.001-.137-.005-.263-.021-.38-.05-.114-.026-.22-.064-.316-.115-.018-.009-.034-.02-.052-.031-.068-.035-.132-.072-.19-.115-.09-.065-.168-.14-.232-.22-.104-.131-.175-.285-.223-.451-.059.104-.13.207-.215.305-.038.044-.077.084-.116.123l-.005.005-.023.021-.06.053-.002.002c-.02.018-.042.035-.063.052-.062.05-.124.094-.186.134-.112.072-.224.13-.34.172-.117.043-.237.073-.364.091-.127.017-.26.023-.404.018-.131-.005-.258-.021-.38-.049-.12-.028-.235-.066-.339-.114-.106-.048-.201-.107-.286-.172-.084-.066-.158-.14-.217-.22-.109-.147-.179-.318-.219-.505-.04-.186-.053-.389-.047-.599.008-.21.034-.427.068-.645.035-.217.079-.433.123-.642.043-.208.088-.424.142-.637.054-.214.116-.426.193-.628s.169-.394.282-.568c.113-.174.248-.33.41-.458.09-.073.19-.137.295-.193.107-.055.22-.1.34-.137.118-.037.242-.063.368-.08.126-.014.254-.019.384-.011.133.008.258.024.373.051.115.026.222.063.32.113.096.049.185.11.266.185.072.067.137.146.196.236.01-.077.022-.155.036-.236.037-.202.084-.415.135-.634.05-.222.102-.433.157-.631.057-.2.118-.387.189-.56.024-.058.05-.115.076-.171l.035-.07.008-.015.035-.064c.029-.052.059-.103.09-.152.06-.089.125-.17.197-.246.229-.254.528-.574 1.004-.66-2-3.433-5.635-5.762-9.879-5.766C5.261-.007.006 5.287 0 11.69c-.002 1.863.491 3.593 1.266 5.153.23-.106.426-.279.564-.505l.008-.01.011-.017c.067-.107.122-.222.169-.352.043-.118.082-.254.118-.414.006-.026.88-4.813.933-5.1l-.768.002.372-1.266.603-.002.064-.332.022-.136.018-.107c.036-.204.076-.436.117-.6.032-.136.064-.248.099-.352.05-.156.101-.294.158-.42.09-.2.19-.374.308-.535.124-.168.262-.32.422-.462.116-.103.242-.199.377-.285.142-.092.297-.172.46-.24.178-.072.36-.128.545-.165.202-.041.41-.062.62-.062h.032c.207 0 .402.02.58.059.072.014.138.034.201.053l.01.004-.415 1.34-.017-.01-.026-.014c-.063-.03-.133-.053-.207-.069-.077-.016-.16-.025-.248-.025h-.01c-.093 0-.183.01-.27.027-.078.016-.153.038-.23.07l-.01.003-.014.004c-.058.022-.114.05-.17.084-.056.035-.109.074-.158.117-.091.077-.169.167-.239.275-.065.105-.12.217-.165.346-.043.116-.081.248-.117.407-.004.018-.025.135-.042.238l-.032.178-.086.61.914-.002-.372 1.268-.738-.005-.69 3.855-.178.936c-.042.222-.078.407-.13.6-.067.245-.141.457-.227.65-.09.2-.194.379-.314.544-.126.17-.266.325-.43.471-.12.107-.25.205-.385.291-.116.075-.24.141-.368.2 2.054 3.166 5.606 5.26 9.648 5.264 6.364.006 11.528-5.173 11.535-11.57.001-1.642-.337-3.203-.948-4.617h.008z" mask="url(#prefix__d)"/>
            </g>
            <path fill="#B71F40" d="M33.609 12.807c-.016.067-.033.133-.051.197.027-.085.051-.172.072-.265.03-.129.057-.265.082-.408.013-.072.025-.142.035-.211-.012.073-.025.147-.04.223-.03.16-.062.317-.098.464" transform="translate(1 .094) translate(11.932)"/>
            <path fill="#FFF" d="M33.82 11.468c-.002.127-.015.264-.035.41-.01.079-.023.16-.038.242-.01.069-.022.14-.035.211-.025.143-.051.28-.082.408-.021.093-.045.18-.073.265-.021.076-.044.15-.069.22-.047.13-.1.251-.165.36-.064.109-.139.205-.228.288-.048.046-.1.087-.153.122-.052.036-.108.066-.166.09-.058.024-.118.044-.182.056-.063.013-.13.02-.199.02-.07.002-.136-.003-.196-.015-.059-.011-.113-.028-.164-.05-.05-.024-.094-.052-.135-.087-.04-.034-.077-.074-.11-.118-.054-.082-.09-.178-.113-.286-.022-.109-.03-.229-.025-.36.003-.13.017-.272.038-.42.022-.149.05-.306.083-.468.03-.164.063-.32.098-.467.036-.147.076-.287.124-.414.046-.13.102-.247.167-.353.065-.106.14-.2.23-.282.05-.045.099-.084.15-.118.052-.034.106-.062.162-.085.055-.023.114-.04.176-.051.063-.012.128-.017.197-.017s.133.005.192.017c.06.011.114.028.165.052.05.021.095.05.136.083.04.035.077.073.109.118.055.08.092.174.114.28.023.104.03.222.028.349m1.223-.841c-.055-.145-.13-.279-.23-.407-.065-.088-.146-.173-.241-.252-.096-.08-.208-.153-.336-.215-.128-.06-.272-.113-.434-.148-.162-.037-.342-.058-.54-.059-.201-.002-.389.016-.565.05-.175.033-.339.083-.49.142-.15.062-.288.132-.415.211-.126.078-.24.164-.34.252-.148.13-.273.265-.384.41-.11.147-.201.304-.281.477-.08.173-.147.36-.206.568-.058.207-.11.434-.156.685-.046.253-.08.482-.098.693-.02.21-.023.4-.009.577.016.175.049.335.104.485.055.15.13.287.232.419.07.09.153.178.25.259.099.08.213.154.344.215.13.062.279.112.446.146.165.034.35.052.555.048.204-.002.396-.026.575-.063.179-.04.344-.093.497-.158.153-.065.292-.141.418-.223.127-.083.24-.172.34-.263.146-.132.27-.27.375-.42.106-.148.195-.307.27-.48.076-.173.139-.362.194-.568.053-.207.1-.432.14-.68.042-.247.073-.47.09-.674.015-.203.016-.388 0-.558-.017-.17-.05-.324-.105-.469M22.27 18.439c.165-.147.305-.301.43-.472.122-.166.225-.345.316-.546.086-.193.16-.405.226-.65.053-.194.09-.379.131-.601l.178-.938.691-3.845.747.005.38-1.294-.919.003.086-.612c.004-.016.017-.093.032-.178l.042-.239c.036-.158.075-.291.117-.407.046-.128.1-.242.166-.346.07-.109.148-.199.239-.276.05-.043.103-.082.157-.117.058-.034.114-.062.172-.084l.013-.004.01-.003c.078-.032.153-.054.23-.07.088-.018.178-.027.27-.027h.01c.088 0 .172.009.248.025.075.016.144.039.207.069l.026.013.017.01.415-1.34-.01-.003c-.063-.019-.13-.039-.2-.053-.179-.039-.374-.059-.58-.059h-.031c-.21 0-.42.021-.622.062-.184.037-.367.093-.544.165-.163.068-.318.149-.46.24-.135.087-.262.183-.378.286-.16.142-.299.294-.422.462-.118.16-.219.336-.309.534-.056.127-.108.265-.158.421-.035.104-.066.216-.099.353-.04.164-.08.395-.116.6l-.019.107-.022.136-.064.332-.599.002-.378 1.287h.766s-.928 5.062-.934 5.089c-.036.16-.075.296-.118.414-.047.13-.102.245-.17.352l-.01.016-.008.01c-.138.227-.335.4-.565.506.198.4.418.785.66 1.156.128-.059.252-.125.368-.2.135-.087.265-.184.385-.291" transform="translate(1 .094) translate(11.932)"/>
            <path fill="#B71F40" d="M28.487 12.807c-.015.067-.032.13-.05.194.026-.084.05-.17.071-.262.03-.129.057-.265.082-.407.013-.072.025-.142.035-.21-.012.072-.025.145-.04.221-.03.16-.063.317-.098.464" transform="translate(1 .094) translate(11.932)"/>
            <path fill="#FFF" d="M28.699 11.468c-.002.127-.015.264-.036.41-.01.08-.023.16-.038.244-.01.067-.022.138-.035.21-.025.142-.052.278-.082.407-.02.092-.045.178-.071.262-.022.077-.045.152-.07.224-.048.13-.102.25-.166.36-.064.108-.14.204-.228.287-.048.046-.1.087-.153.122-.053.036-.108.066-.166.09-.058.024-.119.044-.182.057-.064.011-.13.019-.2.02-.07.001-.135-.004-.194-.016-.06-.01-.114-.028-.165-.05-.05-.024-.095-.052-.135-.087-.04-.034-.077-.074-.11-.118-.054-.082-.09-.178-.113-.286-.022-.109-.03-.229-.025-.36.003-.13.017-.271.038-.42.022-.149.05-.306.083-.468.03-.164.063-.32.098-.467.036-.147.076-.287.124-.414.046-.13.101-.247.167-.353.065-.106.141-.2.23-.282.05-.044.1-.084.15-.118.053-.033.106-.062.162-.085.056-.023.115-.04.176-.051.063-.012.128-.017.197-.017s.133.006.192.016c.06.012.114.03.164.053.05.022.097.05.137.083.04.035.077.073.109.118.054.08.092.174.113.28.024.104.032.222.029.349m1.223-.841c-.055-.145-.13-.279-.23-.407-.066-.088-.146-.173-.241-.253-.096-.078-.208-.152-.335-.214-.128-.06-.273-.112-.436-.148-.16-.037-.341-.058-.54-.058-.2-.003-.388.015-.563.049-.176.033-.34.083-.49.143-.151.06-.29.13-.415.21-.126.079-.24.165-.341.252-.148.13-.274.265-.383.41-.11.146-.201.304-.282.476-.079.174-.146.361-.205.57-.059.206-.11.433-.156.684-.046.253-.08.482-.099.693-.02.21-.022.4-.008.576.015.176.049.336.103.486.055.15.132.287.233.419.069.09.152.178.25.26.099.08.212.153.343.214.13.062.28.112.445.146.166.034.351.051.556.048.204-.002.397-.026.575-.063.179-.04.344-.093.497-.158.153-.065.292-.141.419-.223.126-.083.239-.171.34-.263.145-.131.268-.27.375-.42.105-.147.194-.306.27-.48.076-.173.138-.362.192-.568.054-.207.1-.432.141-.68.043-.247.073-.47.089-.673.016-.204.018-.389 0-.558-.016-.17-.05-.325-.104-.47M38.902 11.462c-.002.13-.015.267-.036.415-.01.08-.024.16-.038.244-.01.07-.023.14-.036.213-.025.144-.052.282-.082.413-.022.093-.046.181-.073.267-.022.077-.045.152-.071.223-.047.131-.102.253-.166.363-.065.11-.14.207-.23.291-.05.046-.102.087-.155.123-.053.037-.11.067-.168.091-.059.024-.12.044-.184.056-.063.013-.131.02-.201.021-.07.001-.137-.004-.197-.015-.06-.012-.115-.028-.166-.052-.05-.023-.096-.052-.136-.087-.042-.034-.078-.075-.111-.12-.055-.083-.092-.18-.114-.288-.023-.11-.03-.231-.027-.363.004-.132.018-.275.04-.425.021-.15.05-.309.082-.472.032-.166.064-.324.1-.472.037-.149.077-.29.124-.419.048-.13.104-.249.17-.356.066-.107.142-.203.233-.284.049-.046.1-.086.151-.12.053-.034.107-.063.163-.086.057-.023.116-.04.178-.051.064-.012.13-.018.199-.018.07 0 .134.006.194.018.06.01.116.028.166.052.05.022.097.051.138.084.04.035.078.074.11.119.055.082.092.176.115.283.023.105.031.224.028.352m1.209-4.12c-.072.076-.138.158-.197.247-.032.048-.062.1-.091.152-.014.023-.025.044-.035.064l-.008.014-.034.07c-.027.057-.053.114-.077.173-.07.172-.132.36-.189.559-.055.198-.107.41-.157.632-.051.219-.098.432-.135.634-.014.08-.025.16-.036.237-.06-.09-.124-.17-.196-.237-.081-.074-.17-.136-.267-.185-.098-.05-.205-.087-.32-.113-.114-.027-.24-.043-.373-.051-.13-.008-.258-.003-.384.012-.127.016-.25.042-.37.079-.118.036-.231.082-.338.137-.107.056-.206.12-.296.193-.162.128-.297.285-.41.458-.113.174-.205.367-.282.569-.078.203-.14.414-.194.628-.053.214-.099.43-.142.638-.043.209-.087.425-.123.642-.034.218-.06.435-.067.646-.006.21.006.413.046.599.04.187.111.359.22.505.059.08.132.155.217.22.085.066.18.124.286.173.104.048.22.086.34.114.12.028.248.044.38.049.143.004.276 0 .404-.018.126-.018.247-.048.363-.09.117-.044.23-.101.341-.173.062-.04.124-.085.187-.135l.063-.052.002-.002.059-.052.024-.021.004-.006c.04-.039.079-.079.116-.122.086-.099.157-.202.216-.306.047.167.119.32.222.452.065.08.143.155.232.22.059.042.123.08.191.115.018.01.034.022.052.031.096.05.202.089.317.116.116.028.242.044.38.05l.113-.002.365-1.177-.025-.003c-.05-.011-.096-.026-.138-.047-.042-.02-.08-.046-.113-.076-.034-.03-.064-.065-.091-.103-.045-.07-.074-.154-.09-.245-.013-.07-.016-.148-.015-.23l-.003-.012.005-.092c0-.023.004-.054.008-.088.008-.078.018-.158.031-.241l.011-.057.01-.066.182-1.037c.134-.799.3-1.784.32-1.887.033-.173.066-.337.103-.491.038-.155.08-.302.13-.436.048-.135.106-.26.174-.372.069-.11.148-.21.242-.295.051-.047.104-.09.157-.125.055-.035.112-.065.17-.09.059-.023.12-.042.185-.054-.184-.427-.393-.842-.626-1.24-.476.086-.818.347-1.046.601M27.01 18.1v-.826c0-.186-.119-.25-.228-.25-.109 0-.232.064-.232.25v.827h-.338v-1.362h.314v.125c.09-.094.214-.141.34-.141.136 0 .245.044.32.12.11.11.139.238.139.387v.87h-.315zM28.76 17.151c-.037-.081-.113-.141-.227-.141-.115 0-.191.06-.228.141-.02.05-.028.087-.031.147h.517c-.003-.06-.01-.097-.031-.147zm-.495.366c0 .176.107.304.298.304.148 0 .221-.042.307-.128l.206.202c-.138.139-.27.215-.516.215-.321 0-.63-.147-.63-.7 0-.446.24-.699.593-.699.379 0 .593.278.593.654v.152h-.851zM30.164 18.1c-.277 0-.395-.198-.395-.394v-.676h-.145v-.243h.145v-.413h.34v.413h.241v.243h-.242v.656c0 .079.037.123.119.123h.123v.292h-.186zM32.439 18.101L32.16 18.101 31.877 17.246 31.593 18.101 31.315 18.101 30.898 16.739 31.257 16.739 31.476 17.581 31.752 16.739 31.999 16.739 32.277 17.581 32.495 16.739 32.852 16.739zM34.07 17.088c-.039-.039-.091-.06-.16-.06-.067 0-.117.021-.156.06-.07.072-.078.19-.078.33 0 .143.008.263.078.334.04.04.09.06.157.06.068 0 .12-.02.16-.06.07-.07.077-.191.077-.333 0-.142-.007-.26-.078-.33m.264.863c-.084.089-.222.167-.423.167-.201 0-.337-.078-.42-.167-.123-.13-.155-.284-.155-.533 0-.247.032-.402.155-.53.083-.089.219-.168.42-.168.2 0 .34.079.423.168.122.128.154.283.154.53 0 .25-.032.404-.154.533M35.804 17.11c-.052-.053-.096-.088-.18-.082-.212.014-.216.252-.216.252v.82h-.339V16.74h.315v.129c.079-.079.209-.147.355-.147.133 0 .227.034.321.128l-.256.26zM37.409 18.101L37.076 17.533 36.933 17.696 36.933 18.101 36.594 18.101 36.594 16.228 36.933 16.228 36.933 17.296 37.383 16.739 37.792 16.739 37.307 17.288 37.828 18.101z" transform="translate(1 .094) translate(11.932)"/>
            <path fill="#B71F40" d="M42.883.459c0 .253-.206.458-.459.458s-.458-.205-.458-.458c0-.258.205-.459.465-.459.246 0 .452.208.452.459zm-.864 0c0 .222.181.404.405.404.224 0 .405-.18.405-.404 0-.221-.18-.405-.398-.405-.23 0-.412.178-.412.405zm.445-.252c.105 0 .166.047.166.132 0 .06-.03.1-.093.122V.458c.028.008.047.021.061.041.016.022.017.03.024.113.005.058.008.07.03.09h-.069c-.01-.014-.013-.03-.015-.074-.006-.129-.024-.149-.133-.149h-.12c-.013 0-.017 0-.03-.005.004.014.004.017.004.032v.196h-.05V.207h.225zm-.15.05c-.013 0-.017 0-.029-.005.004.012.004.015.004.03v.122c0 .014 0 .018-.004.03.012-.004.016-.004.029-.004h.106c.096 0 .136-.026.136-.089 0-.058-.038-.085-.12-.085h-.122z" transform="translate(1 .094) translate(11.932)"/>
        </g>
        <text fill="#24306B" font-family="AvenirNext-Bold, Avenir Next" font-size="11.606" font-weight="bold" letter-spacing="7.061" transform="translate(1 .094) translate(37.342 52.86)">
            <tspan x=".675" y="12.03">PREMIUM</tspan>
        </text>
    </g>
</svg>
