<svg xmlns="http://www.w3.org/2000/svg" xmlns:xlink="http://www.w3.org/1999/xlink" width="276" height="80" viewBox="0 0 276 80">
    <defs>
        <path id="prefix__a" d="M0 0L35.425 0 35.425 35.606 0 35.606z"/>
        <path id="prefix__c" d="M0 0L36.196 0 36.196 36.406 0 36.406z"/>
    </defs>
    <g fill="none" fill-rule="evenodd">
        <g>
            <path fill="#FFF" d="M82.076 41.806v-8.525h-8.98V20.743h-3.493c-.434 7.713-4.912 14.308-11.476 17.553v3.761h4.74v10.538c0 10.12 3.899 15.039 11.975 15.039 1.6 0 4.456-.223 5.987-.502v-10.28c-.746.138-2.906.5-3.992.5-2.849 0-3.742-1.309-3.742-5.427V41.806h8.981zM102.783 68.386c-11.11 0-19.21-7.46-19.21-18.556 0-10.747 7.033-18.806 18.212-18.806 7.429 0 15.616 3.38 17.213 13.29l-8.98 3.009c-.626-4.396-4.414-6.77-8.233-6.77-4.097 0-8.233 2.983-8.233 8.776 0 5.653 2.94 9.278 8.981 9.278 3.055 0 6.844-1.598 8.233-3.762l8.482 3.762c-3.055 6.49-9.522 9.779-16.465 9.779M145.692 31.526c7.599 0 12.473 5.261 12.473 13.424v22.182h-10.228V46.753c0-3.768-2.697-5.652-5.81-5.652-3.874 0-8.37 2.826-9.408 8.479v17.552h-9.979V20.743h9.98v16.55c3.345-3.907 8.301-5.767 12.972-5.767M172.385 45.317H189.1c-.972-3.35-3.413-5.266-8.482-5.266-3.61 0-6.844 2.125-8.233 5.266m17.713 10.03l6.985 4.263c-2.986 6.35-10.175 8.776-16.216 8.776-11.109 0-18.71-7.46-18.71-18.556 0-11.515 7.42-18.806 18.461-18.806 10.068 0 17.962 6.96 17.962 16.8 0 2.652-.748 4.765-.748 4.765h-25.696c1.18 3.977 4.454 6.77 8.482 6.77 2.083 0 7.397.036 9.48-4.012" transform="translate(1.5 .5) translate(18.682)"/>
            <g transform="translate(1.5 .5) translate(18.682) translate(202.571 31.526)">
                <mask id="prefix__b" fill="#fff">
                    <use xlink:href="#prefix__a"/>
                </mask>
                <path fill="#FFF" d="M22.952 0c7.57 0 12.473 5.384 12.473 13.54v22.066H25.197V14.794c0-3.699-2.445-5.516-5.489-5.516-3.873 0-8.622 2.983-9.73 8.776v17.552H0V.752h9.48l.499 5.015C13.313 1.794 18.298 0 22.952 0" mask="url(#prefix__b)"/>
            </g>
            <path fill="#FFF" d="M48.897 40.553c-1.724 0-3.389-.354-4.99-.753v27.332h9.979V39.8c-1.596.396-3.272.753-4.99.753M9.979 44.063l12.224-10.782h12.723L22.951 45.066c3.608 7.362 9.532 13.29 12.724 13.29.97 0 3.57-.013 4.49-.013v8.79c-1.873.35-5.529.25-6.985.25-6.73 0-11.138-6.324-16.964-17.051l-6.237 5.266v11.534H0V20.743h9.979v23.32z" transform="translate(1.5 .5) translate(18.682)"/>
            <path fill="#E6003D" d="M52.731 16.97c-.05-.07-.107-.13-.17-.183-.064-.052-.136-.098-.214-.131-.078-.037-.164-.064-.257-.082-.093-.018-.193-.026-.3-.027-.109.001-.21.009-.31.027-.095.018-.188.045-.276.08-.087.036-.17.081-.251.134-.082.053-.16.115-.236.185-.14.126-.258.274-.36.44-.103.167-.19.35-.263.553-.074.2-.136.419-.193.65-.055.23-.106.473-.154.73-.05.254-.095.5-.129.733-.034.231-.055.453-.06.658-.007.205.005.393.04.564.034.168.092.318.177.446.051.07.107.132.172.186.063.054.133.099.21.135.08.036.165.062.258.08.094.017.196.026.306.024.108-.003.213-.013.312-.033.1-.02.194-.05.285-.086.09-.039.178-.086.26-.142.083-.055.164-.12.24-.191.139-.13.256-.281.356-.45.102-.172.185-.36.259-.564.04-.11.075-.226.108-.345.029-.1.056-.204.081-.31.056-.23.106-.473.153-.726.024-.119.044-.234.064-.349.022-.129.042-.255.06-.377.03-.23.051-.444.055-.644.005-.199-.008-.383-.044-.546-.035-.165-.092-.312-.179-.439M44.712 16.97c-.05-.07-.107-.13-.17-.183-.064-.052-.137-.097-.215-.131-.078-.037-.164-.064-.257-.082-.092-.017-.192-.026-.3-.027-.108.001-.21.009-.309.027-.096.018-.188.044-.276.08-.088.037-.17.081-.251.134-.081.053-.16.115-.237.184-.14.127-.259.275-.36.441-.103.167-.19.35-.262.553-.075.2-.137.418-.194.65-.055.23-.106.474-.154.73-.05.254-.095.5-.129.732-.033.233-.055.454-.06.66-.006.204.005.392.04.562.035.169.092.32.178.447.05.07.107.132.171.186.062.054.134.099.212.135.078.036.164.062.257.08.094.018.195.026.305.025.108-.003.213-.015.312-.033.1-.02.195-.05.286-.087.09-.039.177-.086.26-.142.083-.055.163-.12.239-.191.139-.13.256-.28.357-.45.1-.172.185-.36.258-.564.04-.112.076-.229.11-.35.029-.099.056-.2.08-.304.055-.23.105-.474.153-.726.023-.119.044-.234.063-.347.022-.13.043-.257.06-.38.032-.23.052-.445.055-.644.005-.199-.008-.383-.044-.546-.034-.165-.093-.312-.178-.439M60.685 16.952c-.05-.07-.108-.132-.172-.186-.064-.052-.137-.098-.216-.133-.079-.036-.166-.063-.26-.081-.094-.018-.194-.026-.304-.027-.109 0-.212.008-.31.027-.098.018-.191.045-.28.08-.088.037-.172.082-.255.136-.081.053-.16.116-.237.187-.142.127-.261.277-.365.444-.103.169-.19.355-.264.559-.075.201-.138.423-.196.655-.055.232-.106.48-.156.739-.05.255-.095.504-.129.74-.034.234-.056.458-.061.665-.006.207.006.396.04.568.036.17.093.322.18.45.05.072.108.135.173.19.064.054.135.1.213.135.08.037.166.063.26.081.095.018.198.026.308.025.11-.003.216-.013.316-.034.1-.019.195-.05.288-.087.091-.039.179-.086.263-.143.083-.056.165-.12.241-.193.141-.131.26-.284.36-.455.102-.172.187-.363.261-.57.04-.11.077-.227.11-.348.043-.134.082-.272.115-.418.048-.205.09-.421.13-.646.02-.114.04-.225.055-.334.023-.13.043-.258.06-.381.032-.232.053-.448.056-.65.005-.201-.008-.388-.044-.553-.035-.166-.093-.314-.18-.442" transform="translate(1.5 .5) translate(18.682)"/>
            <g transform="translate(1.5 .5) translate(18.682) translate(30.685 1.436)">
                <mask id="prefix__d" fill="#fff">
                    <use xlink:href="#prefix__c"/>
                </mask>
                <path fill="#E6003D" d="M24.347 16.812c-.025.32-.073.668-.139 1.053-.065.389-.137.743-.22 1.066-.086.323-.184.618-.303.89-.119.27-.258.519-.423.751-.166.234-.36.452-.587.658-.157.142-.335.28-.532.411-.198.128-.416.248-.655.35-.24.101-.498.184-.778.247-.28.059-.58.095-.9.098-.322.007-.61-.022-.87-.075-.262-.053-.494-.131-.699-.228-.204-.096-.383-.21-.537-.337-.153-.127-.283-.264-.392-.405-.158-.207-.277-.422-.364-.657-.086-.234-.137-.485-.161-.76-.023-.275-.018-.574.012-.902.03-.33.083-.689.154-1.085.073-.393.154-.75.245-1.072.092-.326.197-.62.321-.89.126-.27.27-.517.442-.746.172-.228.368-.44.6-.642.158-.138.336-.273.533-.395.198-.124.415-.234.65-.33.236-.093.492-.171.767-.223.276-.053.57-.082.883-.078.31.002.593.035.846.092.255.055.48.137.681.232.2.096.374.212.525.336.15.123.276.257.379.395.155.2.273.41.358.637.087.227.14.47.165.735.026.266.024.556-.001.874zm-8.02 0c-.025.32-.073.668-.14 1.054-.063.388-.135.742-.22 1.065-.084.323-.182.618-.302.888-.117.273-.257.522-.422.754-.167.233-.36.451-.587.657-.158.143-.335.28-.533.412-.197.127-.416.247-.655.348-.239.102-.498.185-.777.248-.28.058-.582.095-.901.099-.32.005-.61-.023-.87-.076s-.494-.13-.697-.229c-.206-.095-.383-.21-.538-.336-.154-.126-.284-.264-.391-.405-.159-.207-.278-.423-.365-.657-.085-.234-.137-.485-.16-.76-.023-.275-.019-.574.012-.902.03-.33.082-.688.155-1.085.072-.393.152-.75.244-1.072.092-.326.197-.62.321-.891.126-.27.27-.516.44-.745.172-.229.37-.44.6-.642.158-.137.337-.272.534-.395.197-.124.414-.234.65-.33.236-.093.492-.171.767-.223.275-.053.569-.082.882-.077.312 0 .594.034.846.09.255.057.48.138.682.233.2.097.374.212.524.336.15.123.275.257.38.395.154.2.272.41.358.637.085.228.139.47.164.736.027.265.024.555-.001.873zm18.397-5.751c-.102.018-.198.047-.29.084-.092.039-.18.086-.265.141-.084.056-.167.122-.246.195-.148.133-.272.288-.38.462-.106.176-.196.37-.273.582-.077.21-.143.44-.203.682-.057.241-.11.498-.16.768-.031.161-.292 1.703-.5 2.953-.002 0-.285 1.623-.285 1.623l-.016.102-.017.09c-.022.13-.037.255-.049.376-.006.055-.011.103-.013.138l-.007.144.004.02c-.002.127.003.248.022.359.027.143.072.273.143.383.042.06.088.115.141.161.053.048.112.087.177.12.067.032.138.055.217.073l.04.005-.572 1.841c-.059.001-.117.004-.178.002-.215-.008-.412-.034-.594-.077-.18-.043-.345-.102-.496-.18-.028-.016-.054-.034-.08-.05-.107-.055-.208-.114-.3-.18-.14-.102-.262-.218-.362-.344-.162-.206-.274-.446-.349-.708-.092.164-.203.325-.336.48-.06.067-.12.13-.183.19l-.006.01-.037.032-.093.083-.003.002c-.033.029-.066.056-.1.082-.097.078-.194.148-.291.21-.175.113-.351.203-.534.27-.181.067-.37.115-.568.142-.2.027-.408.035-.632.029-.207-.008-.405-.034-.594-.077-.189-.045-.369-.104-.532-.18-.166-.075-.315-.166-.448-.269-.132-.102-.247-.218-.34-.344-.17-.23-.28-.497-.343-.79-.064-.291-.082-.609-.073-.938.011-.33.052-.67.105-1.01.056-.34.125-.678.193-1.005.067-.325.139-.664.222-.998.085-.334.182-.666.303-.983.12-.317.265-.618.442-.89.176-.271.388-.516.642-.717.14-.113.296-.213.462-.302.167-.086.344-.157.53-.215.186-.057.38-.098.578-.123.197-.023.398-.03.6-.019.21.013.405.038.585.08.18.042.347.1.5.177.152.076.291.174.418.29.112.105.214.23.307.37.016-.121.034-.244.057-.37.058-.317.13-.65.21-.993.079-.348.16-.678.246-.988.089-.311.185-.606.296-.876.038-.092.078-.181.12-.269l.053-.11.013-.023c.015-.03.033-.063.055-.1.045-.082.092-.162.142-.238.093-.139.196-.267.308-.385.357-.398.826-.898 1.572-1.034C30.549 3.653 24.855.007 18.21 0 8.236-.01.01 8.279 0 18.305c-.003 2.916.769 5.624 1.982 8.066.36-.165.668-.436.884-.79l.011-.017c.006-.009.013-.017.018-.026.105-.166.192-.346.264-.55.068-.186.129-.398.186-.648l1.46-7.985-1.203.002.583-1.983.944-.003.1-.52.034-.212.03-.168c.056-.32.119-.682.182-.939.05-.213.1-.388.155-.551.078-.245.159-.46.247-.659.141-.311.3-.584.483-.836.194-.263.41-.5.66-.723.182-.162.38-.312.59-.447.224-.144.466-.27.722-.376.277-.113.564-.2.852-.259.317-.064.644-.096.973-.096h.049c.323 0 .628.03.908.092.112.022.215.054.314.084l.016.005-.65 2.097-.027-.015-.04-.022c-.099-.046-.208-.082-.324-.107-.12-.025-.251-.039-.389-.039h-.016c-.145 0-.286.014-.423.042-.12.025-.238.06-.36.11l-.016.004-.02.007c-.091.034-.179.078-.268.132-.086.054-.17.115-.247.182-.142.12-.264.261-.373.432-.103.163-.188.34-.26.54-.066.182-.126.39-.182.638-.007.028-.039.212-.066.373l-.05.278-.135.956 1.432-.004-.584 1.985-1.155-.007-1.08 6.036-.279 1.465c-.065.348-.122.637-.204.94-.104.382-.22.714-.354 1.016-.142.315-.303.594-.493.853-.196.267-.416.509-.673.738-.188.167-.39.32-.602.455-.182.118-.376.221-.577.313 3.217 4.957 8.779 8.236 15.107 8.242 9.963.01 18.05-8.1 18.06-18.117.002-2.569-.527-5.013-1.484-7.228h.012z" mask="url(#prefix__d)"/>
            </g>
            <path fill="#B71F40" d="M52.622 20.052c-.025.105-.052.209-.08.309.042-.133.08-.27.113-.415.048-.202.089-.416.129-.639.02-.113.038-.223.054-.331l-.062.349c-.048.253-.098.496-.154.727" transform="translate(1.5 .5) translate(18.682)"/>
            <path fill="#FFF" d="M52.954 17.955c-.004.2-.024.414-.056.644-.017.122-.037.248-.06.377-.016.108-.035.218-.054.331-.04.223-.08.437-.129.64-.033.144-.071.281-.114.414-.033.12-.069.235-.108.345-.074.204-.157.392-.26.564-.099.169-.216.32-.355.45-.076.072-.157.136-.24.19-.082.057-.17.104-.26.143-.091.036-.186.067-.285.086-.099.02-.204.03-.312.033-.11.002-.212-.007-.306-.024-.093-.018-.178-.044-.257-.08-.078-.036-.148-.081-.211-.135-.065-.054-.12-.117-.172-.186-.085-.128-.143-.278-.177-.446-.035-.171-.047-.36-.04-.564.005-.205.026-.426.06-.658.034-.233.079-.48.129-.733.048-.257.099-.5.154-.731.057-.23.12-.45.193-.649.074-.202.16-.386.262-.553.103-.166.22-.314.361-.44.077-.07.154-.132.236-.185.08-.053.164-.098.251-.134.088-.035.18-.062.277-.08.098-.018.2-.026.309-.027.107.001.207.01.3.027.093.018.179.045.257.081.078.034.15.08.214.132.063.053.12.113.17.183.087.127.144.274.179.438.036.164.049.348.044.547m1.914-1.316c-.085-.227-.203-.437-.358-.637-.103-.139-.23-.272-.379-.396-.15-.124-.325-.24-.525-.335-.2-.096-.426-.177-.68-.232-.254-.058-.536-.09-.847-.093-.314-.003-.607.025-.883.079-.275.051-.53.13-.767.223-.235.095-.451.205-.65.33-.197.122-.375.257-.533.394-.232.202-.428.415-.6.642-.172.23-.316.476-.441.746s-.23.565-.322.89c-.092.324-.172.68-.245 1.072-.071.397-.124.755-.154 1.085-.03.328-.035.627-.012.904.024.274.075.525.161.759.087.234.206.45.364.656.109.141.239.278.392.405.154.127.333.241.538.338.204.096.436.175.698.227.26.054.548.082.87.076.32-.003.62-.04.9-.099.28-.063.538-.145.778-.247.239-.101.457-.221.655-.35.198-.13.375-.268.532-.41.228-.207.421-.425.587-.658.166-.232.304-.48.423-.752.119-.271.217-.567.303-.89.083-.323.155-.676.22-1.065.066-.385.114-.734.139-1.053.025-.319.027-.609 0-.874-.025-.266-.077-.508-.164-.735M34.868 28.87c.258-.23.479-.472.675-.74.19-.258.35-.538.493-.853.135-.303.25-.636.355-1.018.083-.304.14-.594.204-.942l.28-1.467 1.082-6.021 1.168.007.596-2.026-1.439.005.135-.958.049-.278c.028-.162.06-.345.067-.374.056-.248.116-.457.183-.638.072-.201.156-.379.26-.542.109-.17.231-.311.373-.432.078-.067.161-.128.247-.182.09-.054.177-.098.268-.133l.02-.006.016-.005c.123-.05.24-.085.361-.11.137-.027.279-.041.424-.041h.014c.138 0 .269.013.39.039.115.024.224.06.323.107.014.006.027.014.04.021l.027.016.65-2.097-.016-.006c-.1-.03-.202-.06-.314-.083-.28-.061-.585-.092-.908-.092h-.048c-.33 0-.656.033-.973.097-.288.058-.575.145-.853.259-.255.106-.498.232-.721.376-.21.135-.41.285-.59.446-.252.224-.468.46-.662.724-.184.252-.341.525-.483.836-.088.199-.17.415-.247.66-.055.163-.104.338-.155.552-.063.256-.127.619-.182.938l-.03.17-.034.211-.1.52-.938.004-.593 2.015h1.2s-1.453 7.926-1.462 7.968c-.056.25-.117.463-.185.648-.073.204-.16.384-.265.551-.005.009-.012.017-.018.026l-.01.016c-.217.355-.526.626-.886.791.31.625.655 1.229 1.032 1.81.202-.092.396-.196.577-.313.212-.136.415-.289.603-.456" transform="translate(1.5 .5) translate(18.682)"/>
            <path fill="#B71F40" d="M44.603 20.052c-.024.105-.051.205-.08.304.042-.132.08-.267.113-.41.047-.202.089-.416.128-.638.02-.113.038-.223.055-.328-.02.112-.04.227-.063.346-.048.252-.098.495-.153.726" transform="translate(1.5 .5) translate(18.682)"/>
            <path fill="#FFF" d="M44.934 17.955c-.003.2-.023.414-.056.644-.016.124-.037.25-.06.38-.016.106-.034.216-.054.329-.04.222-.081.436-.128.638-.033.143-.071.279-.112.41-.035.121-.07.238-.11.35-.074.204-.159.392-.26.564-.1.17-.217.32-.356.45-.076.072-.156.136-.24.191-.082.056-.169.103-.26.142-.09.037-.186.067-.285.087-.1.018-.204.03-.312.032-.11.002-.211-.006-.305-.024-.093-.018-.179-.044-.257-.08-.078-.036-.15-.081-.212-.135-.064-.054-.12-.117-.171-.186-.086-.128-.143-.278-.179-.447-.034-.17-.045-.358-.039-.562.005-.206.027-.427.06-.66.034-.232.08-.478.13-.732.047-.256.098-.5.153-.73.057-.232.12-.45.194-.65.073-.203.16-.386.261-.553.102-.166.222-.314.361-.44.078-.07.156-.132.236-.185.081-.053.164-.097.252-.134.088-.036.18-.062.276-.08.098-.018.2-.026.309-.027.108.001.208.01.3.027.094.018.179.045.257.081.079.035.151.08.214.132.064.053.121.113.17.183.086.127.145.274.179.438.036.164.05.348.044.547m1.915-1.316c-.086-.228-.204-.437-.359-.637-.104-.139-.229-.272-.379-.396-.15-.123-.324-.239-.524-.335-.2-.096-.427-.177-.682-.232-.252-.058-.534-.09-.846-.092-.313-.004-.607.024-.882.077-.275.052-.53.13-.767.224-.236.095-.453.205-.65.33-.197.123-.376.257-.534.394-.23.202-.428.414-.6.642-.17.23-.314.476-.44.746-.124.27-.229.564-.32.89-.093.324-.173.68-.245 1.073-.073.396-.126.754-.155 1.085-.03.327-.035.626-.013.9.024.277.076.528.161.762.087.234.206.45.365.656.107.141.237.28.392.406.154.126.331.24.537.336.203.098.437.176.697.229.26.053.55.08.87.076.32-.004.62-.041.9-.1.28-.062.539-.145.778-.247.24-.101.458-.221.655-.349.198-.13.375-.268.533-.412.227-.205.42-.424.587-.657.165-.231.305-.48.422-.753.12-.27.218-.566.302-.889.085-.323.157-.676.22-1.065.067-.385.115-.734.14-1.053.025-.319.028-.609.001-.874-.025-.266-.08-.508-.164-.735M60.91 17.947c-.004.202-.025.418-.057.65-.017.123-.037.25-.06.38-.016.11-.035.22-.055.335-.04.225-.082.441-.13.646-.033.146-.072.284-.114.418-.034.12-.07.238-.11.349-.075.206-.16.397-.261.57-.102.17-.22.323-.36.454-.077.073-.159.137-.242.193-.084.057-.172.104-.263.143-.093.037-.188.068-.289.087-.099.02-.205.031-.314.034-.111 0-.214-.007-.309-.025-.094-.018-.18-.044-.26-.081-.078-.036-.15-.08-.213-.136-.065-.054-.122-.117-.174-.188-.086-.13-.143-.281-.179-.451-.034-.172-.046-.362-.04-.568.006-.207.027-.43.061-.665.034-.236.08-.485.13-.74.049-.26.1-.507.156-.739.057-.232.12-.453.194-.656.075-.203.162-.39.265-.558.104-.167.223-.317.365-.445.077-.07.156-.133.237-.187.083-.053.167-.098.256-.134.088-.036.18-.063.278-.081.1-.019.202-.027.312-.027.109 0 .21.009.303.027.094.018.181.045.26.081.079.035.152.081.216.133.064.054.122.115.172.186.087.128.145.276.18.442.037.165.05.352.044.553m1.893-6.45c-.112.117-.215.245-.308.385-.05.076-.097.156-.143.238l-.055.1-.012.023c-.025.048-.042.086-.054.11-.041.088-.082.177-.12.27-.11.269-.207.564-.296.875-.085.31-.167.641-.246.99-.08.342-.152.676-.21.993-.023.126-.04.249-.058.37-.092-.141-.194-.265-.306-.37-.127-.117-.266-.214-.418-.29-.153-.078-.32-.136-.501-.177-.18-.042-.376-.068-.584-.08-.203-.012-.404-.005-.602.018-.198.026-.392.066-.577.124-.187.057-.364.129-.532.215-.166.088-.322.189-.462.302-.254.201-.465.446-.642.718-.178.272-.322.573-.442.89-.122.317-.219.649-.303.984-.084.334-.155.673-.223.998-.068.327-.136.666-.192 1.006-.054.34-.095.68-.106 1.01-.01.33.01.648.073.939.063.293.173.561.343.79.093.126.208.243.34.345.133.103.283.194.449.27.163.076.343.135.532.179.19.044.388.069.594.077.225.007.434-.002.633-.028.198-.028.387-.076.57-.143.181-.067.358-.157.533-.27.097-.062.194-.133.292-.21.033-.026.066-.053.099-.082l.003-.003c.032-.026.062-.053.093-.082l.037-.033.007-.009c.062-.06.123-.123.182-.191.134-.154.245-.316.337-.48.075.262.187.503.349.709.1.126.223.242.362.343.092.067.193.126.3.18.027.017.052.035.08.05.152.079.317.139.497.181.181.044.38.07.594.077.06.002.12 0 .178-.002l.572-1.842-.04-.005c-.078-.017-.15-.041-.216-.074-.065-.032-.125-.072-.177-.119-.054-.046-.1-.1-.142-.161-.07-.11-.116-.24-.142-.384-.02-.11-.025-.231-.023-.358l-.004-.02.007-.145c.002-.035.007-.083.013-.138.012-.121.028-.246.05-.376.004-.029.01-.06.016-.09l.016-.102.285-1.624c.208-1.252.47-2.794.5-2.955.051-.27.104-.527.161-.77.06-.241.125-.471.203-.682.077-.211.167-.405.274-.581.108-.175.231-.33.38-.463.079-.074.161-.14.245-.195.086-.056.174-.103.266-.141.092-.037.188-.066.29-.084-.288-.67-.616-1.319-.98-1.944-.746.136-1.281.545-1.64.943M42.29 28.34v-1.294c0-.291-.186-.39-.357-.39-.17 0-.363.099-.363.39v1.295h-.53v-2.133h.493v.196c.139-.147.335-.22.53-.22.214 0 .385.069.504.187.171.173.216.373.216.606v1.364h-.493zM45.03 26.854c-.058-.127-.176-.222-.356-.222s-.299.095-.356.222c-.033.078-.044.136-.049.23h.81c-.005-.094-.017-.152-.05-.23zm-.776.573c0 .274.168.476.467.476.233 0 .347-.065.482-.202l.322.317c-.216.218-.424.337-.809.337-.502 0-.985-.23-.985-1.097 0-.698.377-1.093.928-1.093.593 0 .928.436.928 1.023v.239h-1.333zM47.228 28.34c-.433 0-.618-.31-.618-.618v-1.057h-.227v-.38h.227v-.649h.53v.648h.38v.38h-.38v1.027c0 .123.059.193.186.193h.193v.457h-.29zM50.789 28.341L50.354 28.341 49.91 27.002 49.466 28.341 49.03 28.341 48.377 26.208 48.94 26.208 49.282 27.526 49.714 26.208 50.101 26.208 50.537 27.526 50.878 26.208 51.437 26.208zM53.344 26.756c-.061-.062-.143-.095-.25-.095-.105 0-.183.033-.244.095-.111.11-.123.295-.123.517 0 .222.012.411.123.522.06.062.139.094.245.094.106 0 .188-.032.25-.094.11-.11.122-.3.122-.522 0-.222-.013-.406-.123-.517m.413 1.351c-.131.14-.348.263-.662.263-.315 0-.527-.123-.658-.263-.193-.202-.242-.444-.242-.834 0-.386.05-.628.242-.83.13-.139.343-.263.658-.263.314 0 .53.124.662.263.192.202.241.444.241.83 0 .39-.05.632-.241.834M56.06 26.788c-.083-.082-.152-.136-.283-.127-.332.022-.338.394-.338.394v1.286h-.53v-2.133h.492v.203c.123-.124.327-.23.556-.23.21 0 .356.053.503.2l-.4.407zM58.572 28.341L58.051 27.452 57.826 27.706 57.826 28.341 57.296 28.341 57.296 25.408 57.826 25.408 57.826 27.08 58.531 26.208 59.171 26.208 58.413 27.067 59.228 28.341z" transform="translate(1.5 .5) translate(18.682)"/>
            <path fill="#B71F40" d="M67.142.719c0 .396-.322.717-.718.717-.396 0-.718-.321-.718-.717 0-.404.322-.719.729-.719.385 0 .707.326.707.719zm-1.352 0c0 .348.283.633.634.633.351 0 .634-.283.634-.633 0-.347-.283-.635-.623-.635-.362 0-.645.28-.645.635zm.697-.395c.164 0 .26.074.26.207 0 .094-.047.156-.146.19V.717c.044.013.074.033.096.065.024.034.026.045.037.177.007.09.013.108.048.14h-.109c-.015-.022-.02-.047-.024-.116-.01-.201-.037-.233-.209-.233h-.187c-.02 0-.027 0-.047-.007.007.02.007.026.007.048V1.1h-.078V.324h.352zM66.25.4c-.019 0-.026 0-.045-.007.007.02.007.024.007.047v.192c0 .022 0 .027-.007.046.019-.007.026-.007.045-.007h.167c.15 0 .213-.04.213-.138 0-.092-.06-.133-.19-.133h-.19z" transform="translate(1.5 .5) translate(18.682)"/>
        </g>
    </g>
</svg>
