<?xml version="1.0" encoding="UTF-8"?>
<svg xmlns="http://www.w3.org/2000/svg" xmlns:xlink="http://www.w3.org/1999/xlink" width="222" height="63" viewBox="0 0 222 63">
    <defs>
        <path id="4omax8woka" d="M0 0L32.88 0 32.88 33.048 0 33.048z"/>
        <path id="bgowsyya9c" d="M0 0L33.595 0 33.595 33.79 0 33.79z"/>
    </defs>
    <g fill="none" fill-rule="evenodd">
        <path fill="#071538" d="M76.179 37.47v-7.913h-8.336V17.92h-3.242c-.403 7.158-4.558 13.28-10.65 16.292v3.49h4.399v9.781c0 9.392 3.618 13.958 11.114 13.958 1.486 0 4.136-.206 5.557-.465v-9.542c-.693.129-2.697.465-3.705.465-2.644 0-3.473-1.215-3.473-5.037V37.47h8.336zM95.397 62.14c-10.311 0-17.83-6.924-17.83-17.223 0-9.975 6.528-17.455 16.904-17.455 6.895 0 14.494 3.137 15.976 12.335l-8.335 2.793c-.58-4.08-4.096-6.284-7.641-6.284-3.802 0-7.641 2.77-7.641 8.146 0 5.247 2.729 8.61 8.335 8.61 2.836 0 6.352-1.482 7.641-3.49l7.873 3.49c-2.836 6.025-8.838 9.077-15.282 9.077M135.223 27.928c7.053 0 11.577 4.883 11.577 12.46v20.588h-9.493V42.06c0-3.497-2.504-5.246-5.393-5.246-3.595 0-7.769 2.623-8.732 7.87v16.29h-9.261V17.92h9.261v15.36c3.106-3.625 7.706-5.352 12.04-5.352M159.998 40.728h15.514c-.902-3.11-3.168-4.887-7.873-4.887-3.351 0-6.352 1.972-7.64 4.887m16.44 9.31l6.482 3.956c-2.77 5.894-9.443 8.145-15.05 8.145-10.311 0-17.366-6.923-17.366-17.222 0-10.688 6.887-17.455 17.134-17.455 9.345 0 16.672 6.46 16.672 15.593 0 2.462-.695 4.422-.695 4.422h-23.85c1.096 3.692 4.135 6.284 7.873 6.284 1.934 0 6.866.034 8.8-3.724"/>
        <g transform="translate(188.015 27.928)">
            <mask id="qsheug2obb" fill="#fff">
                <use xlink:href="#4omax8woka"/>
            </mask>
            <path fill="#071538" d="M21.302 0C28.33 0 32.88 4.997 32.88 12.568v20.48h-9.494V13.73c0-3.433-2.269-5.12-5.094-5.12-3.595 0-8.003 2.77-9.03 8.146v16.29H0V.699h8.799l.463 4.655C12.357 1.665 16.983 0 21.302 0" mask="url(#qsheug2obb)"/>
        </g>
        <path fill="#071538" d="M45.383 36.306c-1.6 0-3.145-.328-4.63-.698v25.368h9.26V35.608c-1.48.367-3.036.698-4.63.698M9.262 39.564l11.346-10.007h11.808L21.302 40.495c3.348 6.833 8.847 12.335 11.81 12.335.9 0 3.313-.012 4.167-.012v8.158c-1.739.325-5.131.232-6.483.232-6.246 0-10.338-5.87-15.746-15.825L9.262 50.27v10.706H0V17.92h9.262v21.644z"/>
        <path fill="#E6003D" d="M48.942 14.418c-.046-.065-.099-.12-.158-.17-.059-.048-.126-.09-.198-.122-.073-.034-.153-.059-.239-.075-.086-.017-.18-.024-.279-.025-.1 0-.195.008-.286.025-.09.016-.176.042-.257.074-.08.033-.159.075-.234.124-.075.049-.147.106-.218.172-.13.117-.24.255-.335.409-.095.154-.175.325-.243.513-.07.185-.127.388-.18.602-.051.214-.098.44-.143.679-.046.235-.088.463-.12.68-.03.215-.05.42-.056.61-.005.19.006.365.038.524.032.156.085.295.164.414.048.064.1.123.16.172.058.05.124.092.196.126.073.033.152.057.238.074.087.016.182.024.285.022.1-.002.197-.012.289-.03.092-.018.18-.046.265-.08.083-.036.164-.08.241-.132.077-.051.152-.11.222-.177.13-.121.238-.261.331-.418.094-.16.172-.334.24-.524.037-.102.07-.209.1-.32.027-.093.053-.189.076-.287.052-.214.098-.44.142-.674.022-.11.04-.218.059-.324.02-.12.04-.237.055-.35.03-.213.048-.412.051-.597.005-.185-.007-.356-.04-.508-.032-.153-.086-.29-.166-.407M41.499 14.418c-.046-.065-.1-.12-.158-.17-.059-.048-.126-.09-.199-.122-.073-.033-.152-.058-.238-.076-.086-.015-.18-.023-.28-.024-.1 0-.195.008-.286.025-.089.016-.175.04-.256.074-.082.034-.159.075-.233.124-.075.05-.148.107-.22.171-.13.118-.24.256-.335.41-.095.154-.175.324-.242.513-.07.185-.127.388-.18.602-.051.214-.099.44-.143.679-.047.235-.088.464-.12.679-.03.216-.05.422-.056.612-.006.19.005.364.037.522.033.157.086.296.165.415.047.064.1.123.16.172.057.05.124.092.196.126.073.033.152.057.238.074.087.017.182.024.284.023.1-.002.197-.013.29-.03.091-.019.18-.047.265-.081.084-.036.164-.08.24-.132.078-.051.152-.11.223-.177.129-.12.237-.26.33-.418.094-.16.173-.334.24-.523.038-.104.071-.213.103-.325.026-.092.051-.185.074-.283.051-.214.098-.44.142-.674.021-.11.04-.216.058-.32.021-.122.04-.24.055-.354.03-.213.05-.413.052-.597.005-.185-.007-.356-.04-.508-.032-.153-.087-.289-.166-.407M56.324 14.401c-.046-.065-.1-.122-.16-.172-.059-.049-.127-.09-.2-.123-.073-.034-.154-.06-.24-.076-.088-.017-.181-.024-.283-.025-.101 0-.197.008-.289.025-.09.017-.176.042-.258.075-.082.034-.16.076-.238.125-.075.05-.148.108-.22.174-.131.118-.242.257-.338.412-.096.157-.176.33-.246.519-.07.187-.128.392-.18.608-.052.216-.1.445-.146.686-.046.237-.088.468-.12.687-.031.217-.051.425-.057.617-.005.192.006.368.038.527.033.158.086.299.166.419.048.065.101.124.162.174.059.052.125.093.197.126.074.035.154.06.242.076.087.016.183.024.286.023.102-.003.2-.012.292-.032.093-.017.182-.046.268-.08.084-.036.166-.08.244-.133.077-.052.153-.112.224-.18.13-.121.24-.263.334-.421.095-.16.173-.337.242-.529.038-.103.071-.212.103-.323.039-.125.075-.253.106-.388.045-.19.084-.391.12-.6.02-.106.037-.21.052-.31.021-.121.04-.24.056-.354.03-.215.048-.416.051-.603.005-.187-.007-.36-.04-.513-.033-.155-.086-.292-.168-.41"/>
        <g transform="translate(28.48)">
            <mask id="b8jvo5ux7d" fill="#fff">
                <use xlink:href="#bgowsyya9c"/>
            </mask>
            <path fill="#E6003D" d="M22.597 15.604c-.022.297-.067.62-.128.977-.06.361-.127.69-.205.99-.08.3-.17.573-.28.825-.111.252-.24.482-.393.698-.154.217-.334.419-.545.61-.146.133-.31.261-.494.382-.184.119-.386.23-.608.324-.223.095-.463.171-.722.23-.26.054-.539.088-.836.091-.298.006-.566-.02-.807-.07-.243-.049-.458-.121-.648-.21-.19-.09-.356-.196-.499-.314-.143-.118-.263-.245-.364-.376-.147-.192-.257-.392-.338-.61-.08-.217-.127-.45-.15-.704-.02-.257-.016-.534.012-.839.027-.306.076-.638.143-1.007.068-.364.142-.695.227-.995.086-.302.183-.575.299-.826.116-.25.25-.479.41-.692.16-.211.341-.409.556-.596.147-.128.312-.253.495-.366.184-.115.385-.218.603-.306.22-.087.457-.16.712-.207.256-.05.529-.076.82-.073.288.002.55.032.785.085.237.052.446.127.632.216.186.09.347.196.487.312.14.114.256.238.352.367.144.186.253.38.333.59.08.211.129.436.152.683.025.246.023.515 0 .81zm-7.443 0c-.023.297-.068.62-.13.978-.059.36-.126.689-.204.988-.078.3-.17.574-.28.825-.11.254-.239.485-.392.7-.155.216-.335.418-.545.61-.147.132-.31.26-.494.382-.184.118-.387.23-.609.323-.222.095-.462.172-.721.23-.26.054-.54.088-.836.092-.298.005-.567-.021-.808-.07-.241-.05-.458-.122-.647-.213-.19-.089-.355-.194-.499-.312-.143-.117-.263-.245-.363-.376-.147-.192-.258-.392-.339-.61-.079-.217-.127-.45-.149-.706-.02-.255-.016-.532.012-.836.027-.307.076-.64.144-1.007.067-.365.141-.696.226-.996.086-.302.183-.575.298-.826.117-.25.251-.48.41-.692.158-.212.342-.409.556-.596.146-.127.312-.252.495-.366.183-.115.384-.218.604-.306.219-.087.456-.16.711-.208.255-.049.528-.075.82-.071.288 0 .55.031.785.084.236.052.446.127.632.216.186.09.347.197.487.311.139.115.255.239.352.368.143.186.253.38.333.59.078.212.128.436.152.683.024.246.022.515-.001.811zm17.075-5.338c-.095.017-.184.044-.269.078-.085.036-.167.08-.247.131-.077.052-.154.113-.228.181-.137.123-.252.268-.352.43-.098.163-.182.342-.253.539-.073.195-.133.408-.189.633-.053.224-.101.463-.149.713-.029.15-.27 1.58-.464 2.74l-.264 1.507-.015.095-.016.083c-.02.121-.034.237-.045.35l-.013.127-.006.134.004.02c-.002.116.002.229.02.331.026.133.067.254.133.356.039.056.082.107.131.15.049.044.104.08.164.11.062.03.129.052.201.068.012.003.025.003.037.006l-.53 1.708c-.055.001-.11.004-.165.002-.2-.008-.383-.031-.552-.072-.166-.04-.32-.095-.46-.167-.026-.014-.05-.031-.075-.047-.099-.05-.193-.105-.278-.167-.13-.093-.243-.201-.336-.319-.15-.19-.254-.414-.324-.656-.085.151-.188.301-.312.444-.055.064-.111.121-.169.178l-.006.008-.035.03c-.028.027-.056.053-.086.077l-.003.003c-.03.026-.061.051-.092.075-.09.072-.18.138-.27.196-.162.104-.326.188-.495.25-.17.062-.344.106-.528.132-.185.025-.379.032-.587.026-.191-.007-.376-.03-.551-.071-.175-.041-.342-.096-.494-.166-.154-.07-.292-.155-.416-.25-.122-.095-.23-.203-.316-.32-.157-.213-.259-.461-.317-.734-.06-.27-.077-.564-.068-.87.01-.306.048-.62.098-.937.051-.315.115-.63.178-.933.063-.302.129-.616.207-.926.078-.31.168-.618.28-.913.112-.293.246-.573.411-.825.164-.253.36-.48.595-.666.13-.105.275-.198.43-.28.155-.08.32-.146.492-.2.172-.053.352-.09.536-.114.183-.022.37-.028.557-.017.194.011.376.035.543.074.167.038.322.092.464.164.141.07.27.161.388.269.104.097.198.213.284.343.016-.112.033-.226.053-.343.054-.294.121-.603.196-.921.073-.323.148-.63.228-.918.082-.289.172-.562.274-.812.036-.086.073-.169.112-.25.01-.023.026-.057.05-.102l.01-.021c.015-.029.032-.06.052-.093.042-.076.086-.15.132-.221.086-.13.182-.248.286-.358.332-.369.766-.834 1.459-.96C28.353 3.39 23.069.006 16.903 0 7.644-.01.009 7.684 0 16.99c-.003 2.706.714 5.22 1.84 7.486.333-.153.62-.405.82-.734l.01-.015.017-.024c.098-.155.178-.322.245-.51.064-.173.12-.37.172-.602L4.46 15.18l-1.117.002.541-1.84.877-.003.092-.482.032-.198.027-.156c.052-.297.11-.633.17-.871.047-.198.093-.36.144-.512.072-.227.147-.428.229-.612.13-.288.277-.542.448-.775.18-.245.38-.465.613-.672.168-.15.353-.289.548-.414.207-.134.432-.25.67-.35.257-.104.523-.185.79-.24.294-.059.598-.089.903-.089h.046c.3 0 .583.029.843.085.103.021.199.05.29.078l.016.005-.603 1.947-.026-.015-.037-.02c-.092-.043-.193-.076-.3-.1-.112-.023-.234-.035-.362-.035H9.28c-.135 0-.266.013-.393.039-.112.022-.221.055-.335.101l-.014.005c-.006.001-.013.003-.019.006-.084.032-.166.072-.249.122-.08.05-.156.107-.228.17-.132.111-.245.242-.347.4-.095.151-.174.315-.24.502-.062.168-.118.361-.17.591-.006.027-.036.197-.062.347l-.045.258-.126.888 1.33-.005-.543 1.843-1.072-.007-1.002 5.602-.259 1.36c-.06.323-.113.592-.19.873-.096.354-.204.663-.328.943-.132.292-.282.551-.458.791-.181.248-.386.473-.625.685-.174.156-.362.297-.558.423-.169.109-.349.205-.535.29 2.985 4.601 8.147 7.644 14.02 7.65 9.248.01 16.754-7.518 16.763-16.815.002-2.385-.49-4.653-1.377-6.709h.01z" mask="url(#b8jvo5ux7d)"/>
        </g>
        <path fill="#B71F40" d="M48.84 17.278c-.022.098-.048.194-.074.287.04-.123.075-.25.105-.385.045-.187.083-.386.12-.593.018-.105.036-.207.05-.307-.017.106-.036.214-.058.324-.044.234-.09.46-.142.674"/>
        <path fill="#FFF" d="M49.148 15.333c-.003.185-.022.384-.05.597-.017.113-.035.23-.056.35-.015.1-.033.202-.051.307-.037.207-.075.406-.12.593-.03.135-.066.262-.105.385-.031.111-.064.218-.1.32-.07.19-.147.365-.241.524-.092.157-.202.297-.33.418-.071.067-.146.126-.223.177-.077.052-.158.096-.241.132-.085.034-.173.062-.265.08-.092.018-.19.028-.29.03-.102.002-.197-.006-.284-.022-.086-.017-.165-.04-.238-.074-.072-.034-.138-.075-.196-.126-.06-.05-.112-.108-.16-.172-.079-.12-.132-.258-.164-.414-.032-.159-.043-.333-.038-.524.006-.19.025-.395.057-.61.03-.217.073-.445.12-.68.044-.239.09-.465.142-.68.053-.213.111-.416.18-.601.068-.188.148-.359.243-.514.095-.153.204-.29.335-.408.071-.065.143-.123.218-.172.075-.049.153-.09.234-.124.081-.032.167-.058.257-.074.09-.017.185-.024.286-.025.1 0 .193.008.28.025.085.016.165.041.238.075.072.032.14.074.198.122.06.05.112.105.158.17.08.118.134.254.166.407.033.152.045.323.04.508m1.778-1.222c-.08-.211-.19-.405-.333-.591-.096-.13-.213-.253-.352-.367-.14-.116-.301-.223-.487-.312s-.395-.164-.631-.216c-.235-.053-.498-.083-.786-.085-.291-.003-.564.023-.82.073-.255.048-.492.12-.712.207-.218.088-.419.19-.602.306-.184.113-.349.238-.496.366-.215.187-.397.385-.557.596-.16.213-.293.441-.41.692-.115.251-.212.524-.297.826-.086.3-.16.63-.228.995-.066.369-.116.7-.143 1.007-.028.305-.032.582-.012.839.023.254.07.487.15.704.081.218.191.418.338.61.101.13.222.258.364.376.143.118.309.223.499.313s.405.162.648.211c.24.05.51.076.807.07.297-.003.576-.037.836-.091.26-.059.5-.135.722-.23.222-.094.425-.205.608-.324.183-.12.348-.25.494-.382.211-.191.39-.393.545-.61.153-.216.282-.446.392-.698.11-.252.201-.526.281-.826.078-.3.145-.628.205-.989.06-.357.106-.68.128-.977.024-.296.026-.565.001-.811-.023-.247-.072-.472-.152-.682M32.363 25.463c.24-.213.444-.438.626-.686.176-.24.326-.5.458-.793.125-.28.232-.59.329-.944.077-.282.13-.551.19-.874l.26-1.363 1.003-5.588 1.085.007.553-1.88-1.336.004.126-.889.045-.258c.026-.15.056-.32.062-.347.052-.23.108-.424.17-.592.066-.187.145-.352.241-.503.101-.158.215-.29.346-.401.073-.063.15-.12.23-.17.083-.05.164-.09.249-.122l.018-.006.015-.005c.114-.046.223-.078.335-.101.127-.026.259-.04.393-.04h.014c.128 0 .249.013.36.037.108.023.21.056.301.1.013.005.025.012.038.02l.025.014.603-1.947-.015-.005c-.092-.027-.188-.057-.291-.077-.26-.057-.544-.086-.843-.086h-.045c-.305 0-.609.03-.903.09-.267.054-.534.135-.791.24-.238.099-.463.216-.67.35-.195.125-.38.264-.548.414-.233.207-.434.427-.614.672-.17.233-.317.487-.448.776-.082.184-.157.385-.23.612-.05.151-.096.314-.143.512-.06.238-.118.575-.17.871l-.027.157c-.012.067-.021.131-.032.197l-.092.483-.871.003-.55 1.87h1.113l-1.356 7.396c-.053.232-.11.43-.173.602-.067.189-.147.356-.245.51l-.017.025-.01.015c-.2.329-.488.58-.821.734.287.58.607 1.14.957 1.68.188-.085.367-.182.536-.29.197-.127.385-.269.56-.424"/>
        <path fill="#B71F40" d="M41.398 17.278c-.023.098-.048.191-.074.283.039-.122.074-.248.104-.38.044-.188.083-.387.12-.593.018-.105.035-.207.05-.305-.018.105-.037.212-.058.321-.044.234-.091.46-.142.674"/>
        <path fill="#FFF" d="M41.705 15.333c-.003.184-.021.384-.052.597-.015.115-.034.232-.055.353-.015.098-.032.2-.05.305-.037.206-.076.405-.12.592-.03.133-.065.259-.104.381-.032.112-.065.221-.102.325-.068.19-.147.364-.24.523-.094.157-.202.297-.331.418-.07.067-.145.126-.222.177-.077.052-.157.096-.241.132-.085.034-.174.062-.265.08-.093.018-.19.029-.29.03-.102.002-.197-.005-.284-.022-.086-.016-.165-.04-.238-.074-.072-.034-.14-.075-.197-.126-.059-.05-.112-.108-.159-.172-.08-.119-.132-.258-.165-.415-.032-.158-.043-.332-.037-.522.005-.19.026-.396.056-.612.032-.215.073-.444.12-.68.044-.238.092-.464.143-.678.053-.214.11-.417.18-.602.067-.188.148-.359.242-.514.095-.153.206-.29.335-.409.072-.064.145-.121.22-.17.074-.05.151-.091.233-.125.081-.033.167-.058.256-.074.091-.017.186-.024.287-.025.1 0 .193.009.279.024.086.017.165.043.238.076.073.032.14.074.199.122.059.05.112.105.158.17.08.118.134.254.165.407.034.152.046.323.041.508m1.778-1.222c-.08-.211-.19-.405-.333-.591-.097-.13-.213-.253-.352-.368-.14-.114-.301-.221-.487-.31-.186-.09-.396-.165-.632-.217-.235-.053-.497-.083-.785-.084-.292-.004-.565.022-.82.071-.255.049-.492.121-.711.208-.22.088-.42.19-.604.306-.183.114-.348.239-.495.366-.214.187-.397.384-.557.596-.158.212-.292.441-.408.692-.116.251-.213.524-.298.826-.086.3-.16.63-.227.996-.068.368-.117.7-.144 1.007-.028.304-.033.581-.012.836.022.256.07.49.15.706.08.218.191.418.338.61.1.13.22.259.364.377.143.117.308.222.498.311.19.091.406.164.647.212.241.05.51.076.808.07.296-.003.576-.037.836-.091.26-.058.5-.135.722-.23.221-.094.424-.205.608-.323.183-.122.347-.25.494-.383.21-.19.39-.393.545-.61.153-.214.283-.445.392-.699.11-.25.202-.525.28-.825.078-.3.145-.628.205-.988.061-.358.106-.681.129-.978.023-.296.026-.565.001-.81-.024-.248-.074-.472-.152-.683M56.533 15.325c-.003.187-.023.388-.053.603-.015.115-.034.233-.055.354-.015.1-.033.204-.052.31-.037.208-.075.41-.12.6-.031.135-.067.263-.106.388-.031.111-.065.22-.103.323-.069.191-.147.368-.242.529-.094.158-.203.3-.334.422-.071.067-.147.127-.224.179-.078.053-.16.097-.244.133-.086.034-.175.063-.268.08-.092.02-.19.03-.292.032-.103 0-.199-.007-.286-.023-.088-.017-.168-.041-.242-.076-.073-.033-.138-.074-.197-.126-.06-.05-.114-.109-.162-.174-.08-.12-.133-.261-.166-.419-.032-.159-.043-.335-.038-.527.006-.192.025-.4.058-.617.03-.22.073-.45.12-.687.045-.241.093-.47.144-.686.054-.216.112-.42.181-.608.07-.19.15-.362.246-.519.096-.155.207-.294.339-.412.071-.066.144-.124.22-.174.076-.05.155-.091.237-.125.082-.033.168-.059.258-.075.092-.017.188-.025.29-.025.1 0 .194.008.281.025.087.016.168.042.242.076.072.032.14.074.2.123.06.05.113.107.16.172.08.119.134.256.167.411.033.153.045.326.04.513m1.757-5.987c-.104.11-.2.228-.286.357-.046.071-.09.145-.132.221-.02.034-.036.065-.051.093l-.012.022-.05.102c-.038.081-.075.164-.11.25-.103.25-.193.524-.275.812-.08.29-.155.596-.229.919-.074.318-.141.628-.195.922-.021.117-.037.23-.053.343-.086-.13-.18-.246-.285-.343-.118-.108-.247-.199-.388-.27-.142-.072-.298-.125-.465-.164-.166-.039-.349-.062-.542-.074-.189-.01-.375-.004-.559.017-.183.024-.363.061-.536.115-.172.053-.337.12-.493.2-.154.082-.299.175-.429.28-.236.187-.432.414-.595.666-.165.253-.3.532-.411.826-.113.295-.203.603-.281.914-.078.31-.144.624-.207.926-.063.304-.127.619-.179.933-.05.317-.087.633-.097.939-.009.306.008.6.067.87.059.273.161.522.318.735.087.116.194.225.317.32s.262.18.415.25c.152.07.32.125.495.166.175.04.36.064.551.071.209.007.402-.001.588-.026.183-.026.359-.07.528-.132.169-.063.333-.146.495-.25.09-.058.18-.124.271-.196l.092-.075.003-.003c.03-.025.057-.05.086-.077l.034-.03.007-.008c.057-.057.114-.115.169-.178.124-.143.227-.293.313-.445.069.243.173.466.323.657.094.117.207.225.337.32.085.061.179.116.278.167.025.014.049.032.075.045.14.074.293.129.46.168.169.041.353.064.552.072.056.002.11 0 .165-.002l.531-1.71c-.012-.002-.025-.002-.037-.005-.073-.016-.14-.037-.2-.068-.061-.03-.117-.066-.165-.11-.05-.043-.093-.094-.132-.15-.065-.103-.107-.223-.132-.356-.018-.103-.022-.215-.021-.333l-.004-.02.007-.133c.002-.032.006-.077.012-.127.011-.113.026-.229.046-.35l.015-.084c.01-.056.015-.094.015-.094l.264-1.507c.194-1.162.436-2.594.465-2.743.048-.25.096-.49.15-.714.055-.225.115-.438.188-.633.071-.197.155-.377.254-.54.1-.162.215-.307.352-.43.073-.068.15-.129.228-.18.08-.053.162-.096.247-.132.085-.034.175-.06.269-.078-.267-.621-.572-1.224-.91-1.804-.692.126-1.189.506-1.521.876M39.252 24.972V23.77c0-.27-.174-.362-.332-.362-.159 0-.337.092-.337.362v1.202h-.492v-1.98h.457v.183c.13-.137.311-.206.493-.206.198 0 .357.065.467.175.16.16.2.346.2.562v1.266h-.456zM41.805 23.592c-.053-.118-.164-.206-.333-.206-.168 0-.28.088-.333.206-.03.073-.042.126-.046.213h.759c-.005-.087-.016-.14-.047-.213zm-.726.531c0 .255.157.443.437.443.218 0 .326-.061.452-.188l.302.294c-.202.202-.398.313-.758.313-.471 0-.923-.214-.923-1.018 0-.648.353-1.015.87-1.015.555 0 .87.405.87.95v.221h-1.25zM43.835 24.972c-.403 0-.574-.29-.574-.575v-.98h-.211v-.354h.21v-.601h.493v.601h.352v.353h-.352v.953c0 .114.054.179.172.179h.18v.424h-.27zM47.14 24.972L46.735 24.972 46.323 23.729 45.911 24.972 45.507 24.972 44.901 22.992 45.423 22.992 45.741 24.216 46.142 22.992 46.501 22.992 46.905 24.216 47.223 22.992 47.741 22.992zM49.554 23.5c-.06-.056-.139-.087-.241-.087-.103 0-.178.03-.237.088-.107.103-.118.274-.118.48 0 .206.011.381.118.484.06.057.134.088.237.088.102 0 .181-.03.24-.088.107-.103.119-.278.119-.484 0-.206-.012-.377-.118-.48m.398 1.254c-.127.13-.336.244-.64.244-.303 0-.508-.114-.634-.244-.186-.187-.233-.412-.233-.774 0-.359.047-.584.233-.77.126-.13.33-.245.635-.245.303 0 .512.115.639.245.185.186.232.411.232.77 0 .362-.047.587-.232.774M52.031 23.531c-.076-.076-.14-.127-.262-.118-.308.02-.313.366-.313.366v1.193h-.493v-1.98h.457v.188c.114-.114.304-.214.516-.214.194 0 .33.05.467.187l-.372.378zM54.363 24.972L53.879 24.147 53.671 24.383 53.671 24.972 53.179 24.972 53.179 22.25 53.671 22.25 53.671 23.802 54.325 22.992 54.919 22.992 54.216 23.79 54.972 24.972z"/>
        <path fill="#B71F40" d="M62.724 9.357c0 .48-.39.87-.87.87s-.87-.39-.87-.87c0-.488.39-.87.884-.87.467 0 .856.395.856.87zm-1.637 0c0 .422.343.767.768.767s.768-.342.768-.767c0-.42-.343-.769-.755-.769-.438 0-.781.338-.781.77zm.843-.478c.2 0 .315.09.315.25 0 .115-.057.19-.175.231v-.005c.053.016.089.04.115.08.03.04.032.054.045.213.01.11.016.132.059.17h-.132c-.018-.027-.025-.056-.03-.14-.011-.244-.044-.282-.253-.282h-.226c-.025 0-.034 0-.058-.01.009.026.009.032.009.06v.372h-.094v-.94h.425zm-.285.094c-.023 0-.032 0-.054-.009.008.023.008.03.008.057v.232c0 .027 0 .034-.008.057.022-.009.03-.009.054-.009h.202c.182 0 .258-.048.258-.167 0-.111-.072-.161-.23-.161h-.23z"/>
    </g>
</svg>
