<svg xmlns="http://www.w3.org/2000/svg" width="16" height="22" viewBox="0 0 16 22">
    <path fill="#FEFEFE" fill-rule="evenodd" d="M11.804 8.366V5.272c0-1.86-1.493-3.367-3.331-3.367h-.944c-1.839 0-3.332 1.508-3.332 3.367v3.094h7.607zm-2.94 9.346v-1.891c.1-.064.195-.14.283-.228.633-.64.633-1.68 0-2.318-.632-.64-1.66-.64-2.294 0-.632.639-.632 1.677 0 2.318.088.088.183.164.283.228v1.891c0 .44.354.797.79.797h.15c.436 0 .788-.357.788-.797zM0 19.713v-9.06c0-1.262 1.014-2.287 2.263-2.287h.049v-3.33C2.312 2.255 4.544 0 7.295 0h1.41c2.752 0 4.985 2.256 4.985 5.035v3.331h.048c1.248 0 2.262 1.025 2.262 2.287v9.06C16 20.976 14.986 22 13.738 22H2.263C1.013 22 0 20.976 0 19.713z"/>
</svg>
