<svg xmlns="http://www.w3.org/2000/svg" width="54" height="54" viewBox="0 0 54 54">
    <g fill="none" fill-rule="evenodd" stroke="#1C1C1C" stroke-linejoin="round" stroke-width="2.5">
        <path fill="#FFBEC1" d="M20.817 24.98v15.613c0 1.725 1.398 3.122 3.122 3.122h14.572l6.245 6.245v-6.245h2.082c1.725 0 3.122-1.397 3.122-3.122V23.939c0-1.724-1.397-3.122-3.122-3.122H31.225" transform="translate(2 2)"/>
        <g stroke-linecap="round">
            <path d="M0 10.706L4.282 0 6.423 0 10.706 10.706M1.784 8.029L8.922 8.029" transform="translate(2 2) translate(30.333 26.765)"/>
        </g>
        <path fill="#FFDDDF" stroke-linecap="round" d="M28.103 0H3.123C1.398 0 0 1.398 0 3.123v18.735c0 1.724 1.398 3.122 3.123 3.122h2.081v6.245l6.245-6.245h16.654c1.724 0 3.122-1.398 3.122-3.122V3.123C31.225 1.398 29.827 0 28.103 0z" transform="translate(2 2)"/>
        <g stroke-linecap="round">
            <path d="M10.408 5.725c0 3.162-2.33 5.724-5.204 5.724C2.33 11.45 0 8.887 0 5.725 0 2.563 2.33 0 5.204 0c2.874 0 5.204 2.563 5.204 5.725zM6.245 7.286L10.408 12.49" transform="translate(2 2) translate(10.408 6.245)"/>
        </g>
    </g>
</svg>
