<?xml version="1.0" encoding="UTF-8"?>
<svg width="14px" height="18px" viewBox="0 0 14 18" version="1.1" xmlns="http://www.w3.org/2000/svg" xmlns:xlink="http://www.w3.org/1999/xlink">
    <title>Save icon Copy</title>
    <g id="Current-Designs" stroke="none" stroke-width="1" fill="none" fill-rule="evenodd" stroke-linecap="round" stroke-linejoin="round">
        <g id="Class-detail---NonSub-(locked-class)" transform="translate(-1050.000000, -538.000000)" fill="#FFFFFF" stroke="#FFFFFF" stroke-width="1.2">
            <g id="Group-6" transform="translate(89.000000, 131.000000)">
                <g id="Group-9-Copy" transform="translate(940.000000, 397.000000)">
                    <path d="M22.5,11 L33.5,11 C33.7761424,11 34,11.2238576 34,11.5 L34,26.322134 C34,26.5982764 33.7761424,26.822134 33.5,26.822134 C33.4070502,26.822134 33.3159405,26.7962245 33.2368997,26.7473142 L28.226392,23.6468261 C28.0642962,23.5465216 27.8592705,23.5471105 27.6977535,23.6483443 L22.7655381,26.7397031 C22.5315561,26.8863558 22.2229907,26.8155613 22.076338,26.5815793 C22.0264562,26.5019936 22,26.409967 22,26.3160411 L22,11.5 C22,11.2238576 22.2238576,11 22.5,11 Z" id="Save-icon-Copy"></path>
                </g>
            </g>
        </g>
    </g>
</svg>