<svg xmlns="http://www.w3.org/2000/svg" width="24" height="24" viewBox="0 0 24 24">
    <g fill="none" fill-rule="evenodd">
        <path stroke="#FFF" stroke-linecap="round" stroke-linejoin="round" d="M0 0L3.89 1.384 6.308 16.573 19.994 16.573" transform="translate(1 1)"/>
        <path stroke="#FFF" stroke-linecap="round" stroke-linejoin="round" d="M4.416 3.619L22.128 3.619 20.5 12.5 6.131 12.5" transform="translate(1 1)"/>
        <path fill="#FFF" d="M19.5 20.75c0 .966-.784 1.75-1.75 1.75S16 21.716 16 20.75 16.784 19 17.75 19s1.75.784 1.75 1.75zM9.048 20.793c0 .967-.784 1.75-1.75 1.75-.967 0-1.75-.783-1.75-1.75 0-.965.783-1.75 1.75-1.75.966 0 1.75.785 1.75 1.75z" transform="translate(1 1)"/>
    </g>
</svg>
