<?xml version="1.0" encoding="utf-8"?>
<svg width="20px" height="20px" viewBox="0 0 20 20" version="1.1" xmlns="http://www.w3.org/2000/svg" xmlns:xlink="http://www.w3.org/1999/xlink">
<style type="text/css">
	.st0{fill-rule:evenodd;clip-rule:evenodd;fill:#E6003D;}
</style>
<title>Star - red</title>
<desc>Created with Sketch.</desc>
<g id="Star---red">
	<path id="Star" class="st0" d="M19.9,8.2C20,8.2,20,8.1,20,8c0-0.1,0-0.2,0-0.2c0-0.1-0.1-0.2-0.2-0.2c-0.1,0-0.1-0.1-0.2-0.1h-6.4
		l-2.8-7.2c0-0.1-0.1-0.2-0.2-0.2S10.1,0,10,0S9.8,0,9.8,0.1S9.6,0.2,9.6,0.3L6.8,7.5H0.4c-0.1,0-0.2,0-0.2,0.1
		C0.1,7.6,0.1,7.7,0,7.8C0,7.8,0,7.9,0,8c0,0.1,0,0.2,0.1,0.2L5,13.1l-1.2,6.4c0,0.1,0,0.2,0,0.2s0.1,0.1,0.1,0.2
		C4,20,4.1,20,4.2,20c0.1,0,0.2,0,0.2-0.1l5.6-3.6l5.6,3.6c0,0,0.1,0.1,0.1,0.1c0,0,0.1,0,0.1,0s0.1,0,0.1,0s0.1,0,0.1-0.1
		c0.1,0,0.1-0.1,0.2-0.2s0.1-0.2,0.1-0.2L15,13.1L19.9,8.2z"/>
</g>
</svg>
