<?xml version="1.0" encoding="UTF-8"?>
<svg width="18px" height="20px" viewBox="0 0 18 20" version="1.1" xmlns="http://www.w3.org/2000/svg" xmlns:xlink="http://www.w3.org/1999/xlink">
    <!-- Generator: Sketch 62 (91390) - https://sketch.com -->
    <title>Group 5</title>
    <desc>Created with Sketch.</desc>
    <g id="Controls-without-Chromecast" stroke="none" stroke-width="1" fill="none" fill-rule="evenodd">
        <g id="Group-5" fill="#000000">
            <path d="M16.5976869,10.7707317 C17.0124069,10.4270049 17.28,9.92780488 17.28,9.36585366 C17.28,8.33326829 16.3942766,7.49268293 15.3051429,7.49268293 L9.79924114,7.49268293 C9.81553371,7.09276098 10.0525166,6.53034146 10.3038171,5.94076098 C10.8217234,4.72694634 11.4665143,3.21576585 10.8271543,1.69990244 C10.2327223,0.284253659 9.64372114,0 8.88685714,0 C8.076672,0 7.86783086,0.710868293 7.55136,1.7856 L7.42496914,2.21268293 C6.99198171,3.64940488 6.04158171,4.71477073 5.12228571,5.74548293 C4.01142857,6.99067317 2.96228571,8.16702439 2.96228571,9.83414634 C2.96228571,10.0931122 3.182976,10.302439 3.456,10.302439 C3.729024,10.302439 3.94971429,10.0931122 3.94971429,9.83414634 C3.94971429,8.51075122 4.84284343,7.50907317 5.87618743,6.35051707 C6.81720686,5.29592195 7.883136,4.10037073 8.373888,2.4702439 L8.50274743,2.03800976 C8.650368,1.53412683 8.80391314,1.01338537 8.88685714,0.936585366 C9.16086857,0.936585366 9.44327314,0.936585366 9.90933943,2.04690732 C10.4015726,3.21389268 9.86391771,4.47640976 9.38847086,5.58954146 C8.97375086,6.56312195 8.61482057,7.40370732 8.92191086,8.1342439 C8.99893029,8.31781463 9.18506057,8.42833171 9.38057143,8.42786341 L15.3051429,8.42926829 C15.8497097,8.42926829 16.2925714,8.84885854 16.2925714,9.36585366 C16.2925714,9.88284878 15.8497097,10.302439 15.3051429,10.302439 L13.824,10.302439 L13.3302857,10.302439 C13.0572617,10.302439 12.8365714,10.5117659 12.8365714,10.7707317 C12.8365714,11.0296976 13.0572617,11.2390244 13.3302857,11.2390244 L13.824,11.2390244 L15.3051429,11.2390244 C15.8497097,11.2390244 16.2925714,11.6586146 16.2925714,12.1756098 C16.2925714,12.6926049 15.8497097,13.1121951 15.3051429,13.1121951 L14.8114286,13.1121951 L13.824,13.1121951 L13.3302857,13.1121951 C13.0572617,13.1121951 12.8365714,13.321522 12.8365714,13.5804878 C12.8365714,13.8394537 13.0572617,14.0487805 13.3302857,14.0487805 L13.824,14.0487805 L14.8114286,14.0487805 C15.3559954,14.0487805 15.7988571,14.4683707 15.7988571,14.9853659 C15.7988571,15.502361 15.3559954,15.9219512 14.8114286,15.9219512 L14.0708571,15.9219512 L13.824,15.9219512 L13.3302857,15.9219512 C13.0572617,15.9219512 12.8365714,16.131278 12.8365714,16.3902439 C12.8365714,16.6492098 13.0572617,16.8585366 13.3302857,16.8585366 L13.824,16.8585366 L14.0708571,16.8585366 C14.4791589,16.8585366 14.8114286,17.1736976 14.8114286,17.5609756 C14.8114286,17.9482537 14.4791589,18.2634146 14.0708571,18.2634146 L10.3596069,18.2634146 C10.3522011,18.2634146 10.3457829,18.2592 10.3378834,18.2592 C7.45903543,18.2592 5.647104,17.6391805 4.44836571,17.2289561 C4.05931886,17.0954927 3.74136686,16.9905951 3.456,16.926439 L3.02992457,17.8035512 C3.26838857,17.8236878 3.64163657,17.9482537 4.11313371,18.1098146 C5.37309257,18.5411122 7.27685486,19.1915707 10.3131977,19.1953171 C10.3215909,19.1953171 10.3294903,19.2 10.3378834,19.2 L14.0708571,19.2 C15.0237257,19.2 15.7988571,18.4647805 15.7988571,17.5609756 C15.7988571,17.252839 15.7035703,16.9671805 15.5465691,16.7208585 C16.2718354,16.443161 16.7862857,15.7716293 16.7862857,14.9853659 C16.7862857,14.5240976 16.602624,14.1063805 16.3098514,13.7795122 C16.8879909,13.4526439 17.28,12.8588488 17.28,12.1756098 C17.28,11.6136585 17.0124069,11.1144585 16.5976869,10.7707317 Z" id="Fill-1"></path>
            <path d="M0.987428571,9.83414634 L0.987428571,17.6138927 L2.96228571,16.9891902 L2.96228571,9.83414634 L0.987428571,9.83414634 Z M0.205385143,18.6432 C0.076032,18.555161 0,18.4137366 0,18.2634146 L0,9.36585366 C0,9.1068878 0.220690286,8.89756098 0.493714286,8.89756098 L3.456,8.89756098 C3.729024,8.89756098 3.94971429,9.1068878 3.94971429,9.36585366 L3.94971429,17.3268293 C3.94971429,17.5286634 3.81394286,17.7070829 3.61201371,17.771239 L0.649728,18.7078244 C0.598875429,18.723278 0.546048,18.7317073 0.493714286,18.7317073 C0.391515429,18.7317073 0.290304,18.7017366 0.205385143,18.6432 Z" id="Fill-3"></path>
        </g>
    </g>
</svg>