<?xml version="1.0" encoding="UTF-8"?>
<svg width="18px" height="22px" viewBox="0 0 18 22" version="1.1" xmlns="http://www.w3.org/2000/svg" xmlns:xlink="http://www.w3.org/1999/xlink">
    <title>Trash Icon</title>
    <g id="Round-2" stroke="none" stroke-width="1" fill="none" fill-rule="evenodd" stroke-linecap="round" stroke-linejoin="round">
        <g id="Web-Shopping-List_Category" transform="translate(-898.000000, -459.000000)" stroke="#000000">
            <g id="Group-20" transform="translate(89.000000, 380.000000)">
                <g id="Shopping-List-Item" transform="translate(20.000000, 79.000000)">
                    <g id="trash" transform="translate(789.000000, 1.300000)">
                        <polyline id="Shape" points="0 4 2 4 18 4"></polyline>
                        <path d="M16,4 L16,18 C16,19.1045695 15.1045695,20 14,20 L4,20 C2.8954305,20 2,19.1045695 2,18 L2,4 M5,4 L5,2 C5,0.8954305 5.8954305,0 7,0 L11,0 C12.1045695,0 13,0.8954305 13,2 L13,4" id="Shape"></path>
                        <line x1="7" y1="9" x2="7" y2="15" id="Shape"></line>
                        <line x1="11" y1="9" x2="11" y2="15" id="Shape"></line>
                    </g>
                </g>
            </g>
        </g>
    </g>
</svg>